<svg xmlns="http://www.w3.org/2000/svg" xmlns:xlink="http://www.w3.org/1999/xlink" width="2000" height="1220"><defs><linearGradient id="b" x1="200" x2="1952" y1="980" y2="1165" gradientTransform="translate(0 -20)" gradientUnits="userSpaceOnUse" spreadMethod="pad"><stop stop-color="#93e0fe" offset="0" style="stop-color:#999;stop-opacity:1"/><stop stop-color="#2179d0" offset="1"/></linearGradient><linearGradient id="d"><stop offset="0"/><stop stop-opacity="0" offset="1"/></linearGradient><linearGradient id="k" x1="385" x2="385" y1="985" y2="1080" gradientTransform="translate(0 -20)" gradientUnits="userSpaceOnUse"><stop stop-color="#262324" offset="0"/><stop stop-color="#343031" offset="1"/></linearGradient><linearGradient id="c" x1="200" x2="1952" y1="980" y2="1165" gradientTransform="translate(0 -20)" gradientUnits="userSpaceOnUse" xlink:href="#b"><stop stop-color="#93e0fe" offset="0"/><stop stop-color="#2179d0" offset="1"/></linearGradient><linearGradient id="o" x1="7.09" x2="1993" y1="1156" y2="1156" gradientTransform="translate(0 -20)" gradientUnits="userSpaceOnUse"><stop stop-color="#fcfcfc" stop-opacity=".085" offset="0"/><stop stop-color="#fcfcfc" offset=".03"/><stop stop-color="#fcfcfc" stop-opacity=".138" offset=".148"/><stop stop-color="#fcfcfc" stop-opacity=".184" offset=".515"/><stop stop-color="#fcfcfc" stop-opacity=".119" offset=".863"/><stop stop-color="#fcfcfc" stop-opacity=".761" offset=".948"/><stop stop-color="#fcfcfc" stop-opacity="0" offset="1"/></linearGradient><linearGradient id="h" x1="7.71" x2="1992" y1="1166" y2="1166" gradientTransform="translate(0 -20)" gradientUnits="userSpaceOnUse"><stop stop-color="#201f1f" offset="0"/><stop stop-color="#534d52" offset=".033"/><stop stop-color="#211f20" offset=".251"/><stop stop-color="#312d2e" offset=".742"/><stop stop-color="#686067" offset=".957"/><stop stop-color="#343031" offset="1"/></linearGradient><linearGradient id="p" x1="820" x2="1195" y1="1162" y2="1162" gradientTransform="translate(-7.5 -20)" gradientUnits="userSpaceOnUse"><stop stop-color="#1a1818" offset="0"/><stop stop-color="#343031" offset=".08"/><stop stop-color="#343031" offset=".92"/><stop stop-color="#1c1a1b" offset="1"/></linearGradient><linearGradient id="q" x1="143" x2="1855" y1="1230" y2="1230" gradientTransform="translate(0 -2100)" gradientUnits="userSpaceOnUse" xlink:href="#c"><stop stop-opacity=".041" offset="0"/><stop stop-opacity=".979" offset=".014"/><stop stop-opacity=".031" offset=".112"/><stop stop-opacity="0" offset=".873"/><stop stop-opacity=".977" offset=".987"/><stop stop-opacity="0" offset="1"/></linearGradient><linearGradient id="g" x1="100" x2="100" y1="1170" y2="1240" gradientUnits="userSpaceOnUse" xlink:href="#d"/><radialGradient id="i" cx="903" cy="1070" r="993" gradientTransform="matrix(0 .529 -2.34 0 3509 475)" gradientUnits="userSpaceOnUse"><stop stop-color="#534d52" offset="0"/><stop stop-color="#343031" offset="1"/></radialGradient><radialGradient id="m" cx="945" cy="1015" r="747" gradientTransform="matrix(0 .212 -1.08 0 2093 756)" gradientUnits="userSpaceOnUse"><stop stop-color="#343031" offset="0"/><stop stop-color="#534d52" offset="1"/></radialGradient><radialGradient id="e" cx="250" cy="1250" r="70" gradientTransform="translate(-180 -80)" gradientUnits="userSpaceOnUse" xlink:href="#d"/><radialGradient id="f" cx="250" cy="1250" r="70" gradientTransform="translate(-2180 -80)" gradientUnits="userSpaceOnUse" xlink:href="#d"/><pattern id="j" patternTransform="translate(1933 767)" xlink:href="#a"/><pattern id="a" width="10" height="4" patternTransform="translate(1933 787)" patternUnits="userSpaceOnUse"><ellipse cx="2.5" cy="1" rx="2.5" ry="1" fill="#010101" stroke-linecap="round" stroke-linejoin="round" stroke-width="3.78" style="paint-order:stroke fill markers"/><ellipse cx="7.5" cy="3" rx="2.5" ry="1" fill="#010101" stroke-linecap="round" stroke-linejoin="round" stroke-width="3.78" style="paint-order:stroke fill markers"/></pattern><clipPath id="l"><path d="M321 966h1359c13.9 0 26.4 1.75 28.1 3.92l60.9 82.2c1.91 2.58-8.84 4.67-24.1 4.67h-1489c-15.3 0-26-2.09-24.1-4.67l60.9-82.2c1.62-2.18 14.1-3.92 28.1-3.92z" fill="#44a410" opacity=".423" stroke-linecap="round" stroke-linejoin="round" stroke-width="3.78" style="paint-order:stroke fill markers"/></clipPath><filter id="n" x="-.003" y="-.035" width="1.01" height="1.07" color-interpolation-filters="sRGB"><feGaussianBlur stdDeviation="2.653"/></filter></defs><g transform="translate(0 -20)" opacity=".4" stroke-linecap="round" stroke-linejoin="round" stroke-width="3.78"><path fill="url(#e)" style="paint-order:stroke fill markers" d="M0 1100h70v140H0z"/><path transform="scale(-1 1)" fill="url(#f)" style="paint-order:stroke fill markers" d="M-2000 1100h70v140h-70z"/><rect x="70" y="1170" width="1860" height="70" ry="0" fill="url(#g)" style="paint-order:stroke fill markers"/></g><path d="M47.6 1160s189 7 962 7 942-7 942-7l-942-15.4z" fill="#090909" style="paint-order:stroke fill markers"/><path d="M7.71 1131v20c0 3.68 13.5 8.68 39.9 8.68h1905c26.4-.111 39.9-5 39.9-8.68v-20z" fill="url(#h)" style="paint-order:stroke fill markers"/><rect x="160" width="1680" height="980" ry="40" fill="#343031" style="paint-order:stroke fill markers"/><rect x="165" y="4" width="1670" height="970" ry="35" fill="#534d52" style="paint-order:stroke fill markers"/><rect x="165" y="5" width="1670" height="970" ry="35" style="paint-order:stroke fill markers"/><path d="M200 960h1600c22.2 0 42.4 2.76 45.5 6.21l147 165c4.25 4.79-13.5 8.68-39.9 8.68H47.6c-26.4 0-44.2-3.89-39.9-8.68l147-165c3.07-3.45 23.4-6.21 45.5-6.21z" fill="url(#i)" style="paint-order:stroke fill markers"/><path d="M210 966c-19.5 0-37.3 2.44-40 5.5l-68.3 78.7c-3.13 3.61 11.5 6.53 32.9 6.53h33.1c21.4 0 40.8-2.92 43.6-6.53l60-78.7c2.33-3.06-11.5-5.5-31-5.5h-30.2zm1550 0c-19.5 0-33.4 2.44-31 5.5l60 78.7c2.74 3.61 22.2 6.53 43.6 6.53h33.1c21.4 0 36.1-2.92 32.9-6.53l-68.3-78.7c-2.66-3.06-20.5-5.5-40-5.5h-30.2z" fill="url(#j)" opacity=".2" style="paint-order:stroke fill markers"/><path d="M321 967h1359c13.9 0 26.4 1.75 28.1 3.92l60.9 82.2c1.91 2.58-8.84 4.67-24.1 4.67h-1489c-15.3 0-26-2.09-24.1-4.67l60.9-82.2c1.62-2.18 14.1-3.92 28.1-3.92z" fill="#686067" style="paint-order:stroke fill markers"/><path d="M321 966h1359c13.9 0 26.4 1.75 28.1 3.92l60.9 82.2c1.91 2.58-8.84 4.67-24.1 4.67h-1489c-15.3 0-26-2.09-24.1-4.67l60.9-82.2c1.62-2.18 14.1-3.92 28.1-3.92z" fill="url(#k)" style="paint-order:stroke fill markers"/><g clip-path="url(#l)" stroke-linecap="round" stroke-linejoin="round" stroke-width="3.78"><path d="M317 976c-2.24 0-4.24.281-4.49.631l-3.65 5.07c-.254.35 1.35.629 3.61.629h73.2c2.25 0 4.25-.279 4.47-.629l3.22-5.07c.222-.35-1.4-.631-3.64-.631zm90.9 0c-2.24 0-4.22.281-4.43.631l-3.16 5.07c-.22.35 1.41.629 3.67.629h63c2.26 0 4.23-.279 4.42-.629l2.79-5.07c.19-.35-1.46-.631-3.69-.631zm80.8 0c-2.23 0-4.19.281-4.38.631l-2.73 5.07c-.19.35 1.47.629 3.72.629h63c2.25 0 4.2-.279 4.36-.629l2.36-5.07c.17-.35-1.5-.631-3.74-.631zm80.8 0c-2.24 0-4.17.281-4.33.631l-2.31 5.07c-.16.35 1.53.629 3.78.629h63c2.25 0 4.17-.279 4.31-.629l1.93-5.07c.13-.35-1.56-.631-3.8-.631zm80.8 0c-2.24 0-4.15.281-4.28.631l-1.87 5.07c-.13.35 1.57.629 3.83.629h63c2.25 0 4.15-.279 4.25-.629l1.5-5.07c.11-.35-1.61-.631-3.85-.631zm80.8 0c-2.24 0-4.12.281-4.22.631l-1.45 5.07c-.1.35 1.63.629 3.89.629h63c2.26 0 4.13-.279 4.21-.629l1.07-5.07c.07-.35-1.67-.631-3.91-.631zm80.8 0c-2.24 0-4.1.281-4.17.631l-1.02 5.07c-.07.35 1.69.629 3.94.629h63c2.25 0 4.1-.279 4.15-.629l.641-5.07c.05-.35-1.72-.631-3.96-.631zm80.8 0c-2.24 0-4.07.281-4.11.631l-.59 5.07c-.04.35 1.74.629 3.99.629h63c2.25 0 4.08-.279 4.09-.629l.221-5.07c.01-.35-1.78-.631-4.02-.631zm80.8 0c-2.24 0-4.05.281-4.06.631l-.16 5.07c-.01.35 1.8.629 4.05.629h63c2.25 0 4.05-.279 4.04-.629l-.221-5.07c-.01-.35-1.83-.631-4.06-.631zm80.8 0c-2.23 0-4.02.281-4 .631l.272 5.07c.01.35 1.84.629 4.1.629h63c2.25 0 4.03-.279 3.98-.629l-.641-5.07c-.05-.35-1.88-.631-4.12-.631zm80.8 0c-2.24 0-4.01.281-3.96.631l.701 5.07c.05.35 1.9.629 4.15.629h63c2.26 0 4.01-.279 3.93-.629l-1.07-5.07c-.07-.35-1.93-.631-4.17-.631zm80.8 0c-2.24 0-3.98.281-3.9.631l1.12 5.07c.08.35 1.96.629 4.21.629h63c2.25 0 3.98-.279 3.88-.629l-1.5-5.07c-.11-.35-1.99-.631-4.23-.631zm80.8 0c-2.24 0-3.95.281-3.85.631l1.56 5.07c.11.35 2.01.629 4.26.629h63c2.25 0 3.96-.279 3.82-.629l-1.93-5.07c-.13-.35-2.04-.631-4.28-.631zm80.8 0c-2.24 0-3.93.281-3.79.631l1.98 5.07c.14.35 2.06.629 4.32.629h63c2.25 0 3.93-.279 3.77-.629l-2.36-5.07c-.17-.35-2.1-.631-4.34-.631zm80.8 0c-2.24 0-3.9.281-3.74.631l2.42 5.07c.16.35 2.11.629 4.37.629h63c2.26 0 3.91-.279 3.72-.629l-2.79-5.07c-.19-.35-2.15-.631-4.39-.631zm80.8 0c-2.24 0-3.88.281-3.68.631l2.84 5.07c.2.35 2.17.629 4.42.629h63c2.25 0 3.89-.279 3.66-.629l-3.21-5.07c-.23-.35-2.21-.631-4.44-.631zm80.8 0c-2.23 0-3.85.281-3.63.631l3.27 5.07c.23.35 2.23.629 4.48.629h63c2.25 0 3.86-.279 3.61-.629l-3.65-5.07c-.25-.35-2.25-.631-4.49-.631zm-1308 7.93c-2.26 0-4.28.291-4.54.641l-8.4 11.7c-.261.36 1.37.65 3.66.65h43.3c2.29 0 4.32-.29 4.57-.65l7.78-11.7c.236-.35-1.39-.641-3.65-.641zm61.1 0c-2.26 0-4.26.291-4.49.641l-7.66 11.7c-.239.36 1.41.65 3.7.65h74.3c2.29 0 4.3-.29 4.51-.65l6.67-11.7c.2-.35-1.45-.641-3.71-.641zm91.6 0c-2.26 0-4.23.291-4.43.641l-6.55 11.7c-.2.36 1.47.65 3.76.65h74.3c2.28 0 4.26-.29 4.44-.65l5.56-11.7c.16-.35-1.52-.641-3.77-.641zm91.6 0c-2.26 0-4.21.291-4.37.641l-5.44 11.7c-.17.36 1.54.65 3.82.65h74.3c2.28 0 4.24-.29 4.38-.65l4.44-11.7c.14-.35-1.57-.641-3.83-.641zm91.6 0c-2.25 0-4.18.291-4.31.641l-4.32 11.7c-.14.36 1.6.65 3.88.65h74.3c2.29 0 4.21-.29 4.31-.65l3.34-11.7c.1-.35-1.63-.641-3.89-.641zm91.7 0c-2.26 0-4.15.291-4.25.641l-3.21 11.7c-.1.36 1.66.65 3.94.65h74.3c2.29 0 4.18-.29 4.25-.65l2.23-11.7c.06-.35-1.7-.641-3.95-.641zm91.6 0c-2.25 0-4.12.291-4.18.641l-2.1 11.7c-.07.36 1.72.65 4.01.65h74.3c2.29 0 4.16-.29 4.19-.65l1.11-11.7c.04-.35-1.75-.641-4.01-.641zm91.6 0c-2.26 0-4.1.291-4.13.641l-.99 11.7c-.03.36 1.79.65 4.08.65h74.3c2.29 0 4.13-.29 4.13-.65v-11.7c0-.35-1.82-.641-4.07-.641zm91.7 0c-2.26 0-4.07.291-4.07.641l.121 11.7c.01.36 1.85.65 4.14.65h74.3c2.29 0 4.1-.29 4.07-.65l-1.11-11.7c-.04-.35-1.88-.641-4.14-.641zm91.6 0c-2.25 0-4.04.291-4 .641l1.23 11.7c.04.36 1.91.65 4.2.65h74.3c2.29 0 4.08-.29 4.01-.65l-2.23-11.7c-.06-.35-1.93-.641-4.19-.641zm91.7 0c-2.26 0-4.02.291-3.95.641l2.35 11.7c.07.36 1.97.65 4.26.65h74.3c2.28 0 4.04-.29 3.94-.65l-3.34-11.7c-.1-.35-2-.641-4.26-.641zm91.6 0c-2.25 0-3.98.291-3.88.641l3.46 11.7c.11.36 2.03.65 4.32.65h74.3c2.28 0 4.01-.29 3.87-.65l-4.44-11.7c-.14-.35-2.06-.641-4.32-.641zm91.7 0c-2.26 0-3.96.291-3.82.641l4.57 11.7c.14.36 2.1.65 4.38.65h74.3c2.28 0 3.99-.29 3.81-.65l-5.56-11.7c-.16-.35-2.12-.641-4.37-.641zm91.7 0c-2.26 0-3.94.291-3.77.641l5.69 11.7c.17.36 2.16.65 4.44.65h136c2.29 0 3.94-.29 3.71-.65l-7.41-11.7c-.23-.35-2.22-.641-4.48-.641zm153 0c-2.26 0-3.89.291-3.66.641l7.53 11.7c.24.36 2.27.65 4.56.65h64c2.29 0 3.92-.29 3.66-.65l-8.4-11.7c-.26-.35-2.28-.641-4.54-.641zm-1324 14.6c-2.29 0-4.35.29-4.61.66l-8.66 12c-.269.38 1.38.68 3.71.68h85.9c2.32 0 4.38-.3 4.61-.68l7.51-12c.229-.37-1.43-.66-3.72-.66zm103 0c-2.29 0-4.32.29-4.54.66l-7.39 12c-.23.38 1.45.68 3.78.68h75.5c2.32 0 4.35-.3 4.55-.68l6.36-12c.2-.37-1.49-.66-3.78-.66zm93 0c-2.29 0-4.28.29-4.47.66l-6.24 12c-.2.38 1.52.68 3.84.68h75.4c2.32 0 4.32-.3 4.48-.68l5.22-12c.16-.37-1.55-.66-3.84-.66zm93 0c-2.29 0-4.26.29-4.41.66l-5.1 12c-.15.38 1.59.68 3.91.68h75.5c2.32 0 4.29-.3 4.42-.68l4.07-12c.13-.37-1.62-.66-3.91-.66zm93 0c-2.29 0-4.23.29-4.35.66l-3.95 12c-.12.38 1.65.68 3.97.68h75.4c2.32 0 4.27-.3 4.36-.68l2.93-12c.08-.37-1.69-.66-3.98-.66zm93 0c-2.29 0-4.2.29-4.29.66l-2.8 12c-.09.38 1.71.68 4.03.68h75.4c2.32 0 4.24-.3 4.29-.68l1.79-12c.05-.37-1.75-.66-4.04-.66zm93 0c-2.29 0-4.18.29-4.23.66l-1.65 12c-.06.38 1.77.68 4.09.68h75.4c2.33 0 4.21-.3 4.23-.68l.639-12c.02-.37-1.81-.66-4.1-.66zm93 0c-2.29 0-4.14.29-4.16.66l-.51 12c-.01.38 1.84.68 4.17.68h75.4c2.33 0 4.18-.3 4.17-.68l-.51-12c-.02-.37-1.87-.66-4.16-.66zm93 0c-2.29 0-4.12.29-4.1.66l.639 12c.02.38 1.9.68 4.23.68h75.4c2.32 0 4.15-.3 4.09-.68l-1.65-12c-.05-.37-1.94-.66-4.23-.66zm93 0c-2.29 0-4.09.29-4.04.66l1.79 12c.05.38 1.97.68 4.29.68h75.4c2.32 0 4.12-.3 4.03-.68l-2.8-12c-.09-.37-2-.66-4.29-.66zm93 0c-2.29 0-4.06.29-3.98.66l2.93 12c.09.38 2.04.68 4.36.68h75.4c2.32 0 4.09-.3 3.97-.68l-3.95-12c-.12-.37-2.06-.66-4.35-.66zm93 0c-2.29 0-4.04.29-3.91.66l4.07 12c.13.38 2.1.68 4.42.68h75.5c2.32 0 4.06-.3 3.91-.68l-5.1-12c-.15-.37-2.12-.66-4.41-.66zm93 0c-2.29 0-4 .29-3.84.66l5.22 12c.16.38 2.16.68 4.48.68h75.4c2.32 0 4.04-.3 3.84-.68l-6.24-12c-.19-.37-2.18-.66-4.47-.66zm93 0c-2.29 0-3.98.29-3.78.66l6.36 12c.2.38 2.23.68 4.55.68h96.4c2.32 0 4-.3 3.76-.68l-7.64-12c-.23-.37-2.26-.66-4.55-.66zm114 0c-2.3 0-3.95.29-3.71.66l7.76 12c.25.38 2.31.68 4.63.68h65c2.33 0 3.98-.3 3.71-.68l-8.66-12c-.26-.37-2.32-.66-4.61-.66zm-1344 15.1c-2.33 0-4.42.3-4.69.68l-8.93 12.4c-.278.38 1.4.699 3.76.699h119c2.36 0 4.44-.319 4.67-.699l7.36-12.4c.223-.38-1.47-.68-3.8-.68zm136 0c-2.33 0-4.37.3-4.59.68l-7.22 12.4c-.225.38 1.49.699 3.85.699h87.3c2.36 0 4.41-.319 4.6-.699l6.04-12.4c.18-.38-1.54-.68-3.87-.68zm105 0c-2.32 0-4.34.3-4.52.68l-5.91 12.4c-.18.38 1.57.699 3.93.699h76.6c2.36 0 4.38-.319 4.54-.699l4.85-12.4c.15-.38-1.6-.68-3.93-.68zm94.5 0c-2.33 0-4.32.3-4.46.68l-4.73 12.4c-.15.38 1.63.699 3.99.699h76.6c2.36 0 4.35-.319 4.47-.699l3.67-12.4c.11-.38-1.67-.68-3.99-.68zm94.5 0c-2.33 0-4.29.3-4.39.68l-3.55 12.4c-.11.38 1.7.699 4.06.699h76.6c2.36 0 4.32-.319 4.39-.699l2.5-12.4c.08-.38-1.74-.68-4.06-.68zm94.5 0c-2.32 0-4.25.3-4.33.68l-2.36 12.4c-.07.38 1.77.699 4.12.699h76.6c2.36 0 4.29-.319 4.33-.699l1.32-12.4c.04-.38-1.8-.68-4.13-.68zm94.5 0c-2.33 0-4.23.3-4.27.68l-1.18 12.4c-.04.38 1.83.699 4.19.699h76.6c2.36 0 4.26-.319 4.26-.699l.141-12.4c0-.38-1.87-.68-4.2-.68zm94.5 0c-2.33 0-4.2.3-4.2.68v12.4c0 .38 1.9.699 4.26.699h76.6c2.35 0 4.23-.319 4.19-.699l-1.05-12.4c-.03-.38-1.93-.68-4.25-.68zm94.5 0c-2.32 0-4.17.3-4.13.68l1.18 12.4c.04.38 1.96.699 4.32.699h76.6c2.36 0 4.2-.319 4.13-.699l-2.23-12.4c-.07-.38-1.99-.68-4.32-.68zm94.5 0c-2.32 0-4.14.3-4.06.68l2.36 12.4c.07.38 2.03.699 4.39.699h76.6c2.36 0 4.17-.319 4.06-.699l-3.41-12.4c-.1-.38-2.06-.68-4.39-.68zm94.5 0c-2.33 0-4.11.3-4.01.68l3.55 12.4c.11.38 2.1.699 4.46.699h76.6c2.35 0 4.14-.319 3.99-.699l-4.59-12.4c-.14-.38-2.13-.68-4.45-.68zm94.5 0c-2.33 0-4.08.3-3.94.68l4.73 12.4c.15.38 2.16.699 4.52.699h76.6c2.36 0 4.11-.319 3.93-.699l-5.78-12.4c-.17-.38-2.18-.68-4.51-.68zm94.5 0c-2.32 0-4.05.3-3.87.68l5.91 12.4c.18.38 2.23.699 4.59.699h151c2.36 0 4.06-.319 3.81-.699l-7.88-12.4c-.24-.38-2.3-.68-4.63-.68zm168 0c-2.33 0-4.01.3-3.76.68l8.01 12.4c.25.38 2.35.699 4.71.699h66c2.36 0 4.03-.319 3.76-.699l-8.93-12.4c-.28-.38-2.37-.68-4.69-.68zm-1365 15.5c-2.36 0-4.49.311-4.77.701l-9.21 12.8c-.288.4 1.41.721 3.81.721h164c2.4 0 4.5-.321 4.72-.721l7.05-12.8c.21-.39-1.52-.701-3.88-.701zm181 0c-2.36 0-4.43.311-4.64.701l-6.91 12.8c-.22.4 1.54.721 3.93.721h77.8c2.39 0 4.47-.321 4.65-.721l5.83-12.8c.18-.39-1.58-.701-3.95-.701zm96 0c-2.36 0-4.4.311-4.57.701l-5.69 12.8c-.18.4 1.6.721 4 .721h77.8c2.39 0 4.44-.321 4.58-.721l4.61-12.8c.14-.39-1.65-.701-4.01-.701zm96 0c-2.37 0-4.38.311-4.51.701l-4.47 12.8c-.14.4 1.67.721 4.07.721h77.9c2.39 0 4.41-.321 4.51-.721l3.39-12.8c.1-.39-1.72-.701-4.08-.701zm96 0c-2.36 0-4.34.311-4.44.701l-3.25 12.8c-.11.4 1.74.721 4.14.721h77.8c2.4 0 4.38-.321 4.45-.721l2.17-12.8c.06-.39-1.79-.701-4.15-.701zm95.9 0c-2.36 0-4.31.311-4.37.701l-2.04 12.8c-.06.4 1.82.721 4.21.721h77.8c2.4 0 4.35-.321 4.38-.721l.951-12.8c.03-.39-1.85-.701-4.21-.701zm96 0c-2.37 0-4.29.311-4.31.701l-.82 12.8c-.02.4 1.89.721 4.28.721h77.9c2.4 0 4.32-.321 4.31-.721l-.27-12.8c-.01-.39-1.92-.701-4.28-.701zm95.9 0c-2.36 0-4.26.311-4.24.701l.4 12.8c.02.4 1.95.721 4.35.721h77.8c2.39 0 4.28-.321 4.24-.721l-1.49-12.8c-.05-.39-1.99-.701-4.35-.701zm95.9 0c-2.36 0-4.22.311-4.17.701l1.62 12.8c.05.4 2.02.721 4.42.721h77.8c2.39 0 4.25-.321 4.17-.721l-2.71-12.8c-.08-.39-2.05-.701-4.42-.701zm96 0c-2.36 0-4.19.311-4.1.701l2.84 12.8c.09.4 2.09.721 4.49.721h77.8c2.4 0 4.23-.321 4.11-.721l-3.93-12.8c-.12-.39-2.12-.701-4.48-.701zm96 0c-2.36 0-4.17.311-4.04.701l4.06 12.8c.13.4 2.16.721 4.55.721h77.8c2.4 0 4.2-.321 4.04-.721l-5.15-12.8c-.16-.39-2.19-.701-4.55-.701zm96 0c-2.36 0-4.13.311-3.97.701l5.28 12.8c.17.4 2.23.721 4.62.721h218c2.39 0 4.12-.321 3.86-.721l-8.13-12.8c-.24-.39-2.35-.701-4.71-.701zm235 0c-2.36 0-4.06.311-3.81.701l8.27 12.8c.25.4 2.39.721 4.79.721h67c2.4 0 4.09-.321 3.81-.721l-9.22-12.8c-.28-.39-2.4-.701-4.77-.701zm-1387 16c-2.4 0-4.56.32-4.85.73l-9.51 13.2c-.296.42 1.43.75 3.86.75H337c2.43 0 4.61-.33 4.87-.75l8.39-13.2c.255-.41-1.47-.73-3.87-.73zm97.5 0c-2.4 0-4.53.32-4.79.73l-8.25 13.2c-.257.42 1.5.75 3.93.75h79.1c2.44 0 4.58-.33 4.8-.75l7.13-13.2c.22-.41-1.54-.73-3.94-.73zm97.5 0c-2.4 0-4.51.32-4.72.73l-6.99 13.2c-.22.42 1.56.75 4 .75h79.1c2.44 0 4.54-.33 4.73-.75l5.87-13.2c.18-.41-1.61-.73-4.01-.73zm97.5 0c-2.4 0-4.48.32-4.65.73l-5.74 13.2c-.17.42 1.64.75 4.08.75h79.1c2.43 0 4.51-.33 4.65-.75l4.62-13.2c.14-.41-1.68-.73-4.08-.73zm97.5 0c-2.4 0-4.45.32-4.58.73l-4.48 13.2c-.14.42 1.71.75 4.15.75h530c2.43 0 4.33-.33 4.26-.75l-2.38-13.2c-.07-.41-2.06-.73-4.46-.73zm542 0c-2.4 0-4.27.32-4.19.73l2.52 13.2c.07.42 2.1.75 4.53.75h79.1c2.43 0 4.3-.33 4.19-.75l-3.64-13.2c-.11-.41-2.13-.73-4.53-.73zm97.5 0c-2.4 0-4.24.32-4.12.73l3.77 13.2c.12.42 2.18.75 4.61.75h79.1c2.44 0 4.28-.33 4.12-.75l-4.89-13.2c-.15-.41-2.2-.73-4.6-.73zm97.5 0c-2.4 0-4.21.32-4.05.73l5.03 13.2c.16.42 2.25.75 4.68.75h79.1c2.44 0 4.24-.33 4.05-.75l-6.15-13.2c-.19-.41-2.27-.73-4.67-.73zm184 0c-2.4 0-4.15.32-3.92.73l2.75 4.91c.23.41 2.36.74 4.77.74h67.6c2.41 0 4.15-.33 3.89-.74l-3.12-4.91c-.26-.41-2.39-.73-4.8-.73zm-82.7 8.21c-2.42 0-4.21.33-4.02.74l2.38 4.99c.2.42 2.31.75 4.75.75h68.1c2.43 0 4.21-.33 3.98-.75l-2.75-4.99c-.22-.41-2.35-.74-4.77-.74zm87.3 0c-2.42 0-4.18.33-3.95.74l2.8 4.99c.23.42 2.38.75 4.81.75h68.1c2.43 0 4.18-.33 3.92-.75l-3.17-4.99c-.26-.41-2.42-.74-4.84-.74zm87.3 0c-2.42 0-4.16.33-3.9.74l3.23 4.99c.26.42 2.44.75 4.87.75h68.1c2.44 0 4.16-.33 3.86-.75l-3.6-4.99c-.29-.41-2.47-.74-4.89-.74z" style="paint-order:stroke fill markers"/><path transform="translate(0 -20)" d="M317 989c-2.24 0-4.24.281-4.49.631l-3.65 5.07c-.103.143-.113 1.21-.1 2.37-1.04.118-1.82.293-1.97.496l-8.4 11.7c-.108.15-.117 1.25-.102 2.44-1.07.12-1.88.301-2.03.518l-8.66 12c-.114.161-.123 1.31-.105 2.53-1.1.123-1.93.311-2.09.535l-8.93 12.4c-.12.165-.128 1.35-.107 2.6-1.13.127-1.99.321-2.16.553l-9.21 12.8c-.127.177-.135 1.4-.11 2.68-1.17.132-2.06.336-2.23.582l-9.51 13.2c-.294.415 0 6 0 6-.297.42 1.43.75 3.86.75h79.1c2.43 0 4.61-.33 4.87-.75l8.39-13.2c.1-.161.107-1.31.091-2.54h8.58l-6.09 9.75c-.233.38 0 6 0 6-.257.42 1.5.75 3.93.75h79.1c2.44 0 4.58-.33 4.8-.75l7.13-13.2c.184-.343 0-6 0-6 .22-.41-1.54-.73-3.94-.73h-3.2l5.14-9.33c.075-.139.082-1.25.07-2.45h8.68l-4.99 9.25c-.184.336 0 6 0 6-.22.4 1.54.721 3.93.721h3.32l-5.16 9.75c-.18.345 0 6 0 6-.22.42 1.56.75 4 .75h79.1c2.44 0 4.54-.33 4.73-.75l5.87-13.2c.136-.309 0-6 0-6 .18-.41-1.61-.73-4.01-.73h-3.77l4.25-9.33c.059-.126.064-1.25.055-2.45h9.04l-4.11 9.25c-.136.302 0 6 0 6-.18.4 1.6.721 4 .721h3.88l-4.24 9.75c-.125.309 0 6 0 6-.17.42 1.64.75 4.08.75h79.1c2.43 0 4.51-.33 4.65-.75l4.62-13.2c.091-.267 0-6 0-6 .14-.41-1.68-.73-4.08-.73h-4.34l3.36-9.33c.04-.11.043-1.24.037-2.45h9.39l-3.23 9.25c-.091.261 0 6 0 6-.14.4 1.67.721 4.07.721h4.46l-3.31 9.75c-.088.266 0 6 0 6-.14.42 1.71.75 4.15.75h530c2.43 0 4.33-.33 4.26-.75 0 0 .032-5.81 0-6l-1.76-9.75h10.2c0 1.19 0 2.46.012 2.54l2.52 13.2c.07.42 2.1.75 4.53.75h79.1c2.43 0 4.3-.33 4.19-.75 0 0 .062-5.76 0-6l-2.69-9.75h9.86c-.01 1.26 0 2.44.027 2.54l3.77 13.2c.12.42 2.18.75 4.61.75h79.1c2.44 0 4.28-.33 4.12-.75 0 0 .107-5.72 0-6l-3.61-9.75h9.52c-.01 1.25 0 2.42.043 2.54l5.03 13.2c.16.42 2.25.75 4.68.75h79.1c2.44 0 4.24-.33 4.05-.75 0 0 .146-5.68 0-6l-4.54-9.75h95.9c-.015 1.22-.01 2.37.084 2.54l2.75 4.91c.123.22.814.412 1.78.547-.019 1.32-.014 2.6.08 2.76l2.8 4.99c.23.42 2.38.75 4.81.75h68.1c2.43 0 4.18-.33 3.92-.75 0 0 .25-5.6 0-6l-3.17-4.99c-.147-.232-.935-.429-2-.564.023-1.3.017-2.56-.1-2.75l-3.12-4.91c-.147-.232-.924-.428-1.98-.56.02-1.29.015-2.53-.092-2.7l-8.13-12.8c-.134-.218-.887-.403-1.91-.531.018-1.26.012-2.46-.09-2.62l-7.88-12.4c-.134-.211-.859-.392-1.85-.516.016-1.23.01-2.39-.088-2.54l-7.64-12c-.127-.204-.829-.378-1.79-.498.014-1.2.01-2.32-.086-2.46l-7.41-11.7c-.126-.192-.804-.358-1.74-.477.013-1.17 0-2.25-.09-2.39l-3.21-5.07c-.23-.35-2.21-.631-4.44-.631h-62.6c-2.24 0-3.88.281-3.68.631 0 0-.197 5.66 0 6l.727 1.3h-7.97c.01-1.1 0-2.1-.072-2.23l-2.79-5.07c-.19-.35-2.15-.631-4.39-.631h-62.6c-2.24 0-3.9.281-3.74.631 0 0-.146 5.68 0 6l.64 1.34c-.399-.02-.8-.04-1.23-.04h-7.09c.01-1.11 0-2.11-.058-2.23l-2.36-5.07c-.17-.35-2.1-.63-4.34-.63h-62.6c-2.24 0-3.93.28-3.79.63 0 0-.118 5.71 0 6l1.98 5.07c.06.15.492.28 1.09.388-.01 1.23 0 2.37.04 2.48l3.12 7.98h-8.83c0-1.15 0-2.2-.04-2.3l-4.44-11.7c-.059-.146-.479-.276-1.05-.385.01-1.22 0-2.36-.045-2.48l-1.93-5.07c-.13-.35-2.04-.631-4.28-.631h-62.6c-2.24 0-3.95.28-3.85.63 0 0-.077 5.73 0 6l.398 1.3h-4.27c-2.25 0-3.98.292-3.88.642 0 0-.06 5.79 0 6l2.36 7.98h-9.2c0-1.04 0-2.22-.019-2.3l-2.27-7.92h4.38c2.25 0 3.98-.28 3.88-.63 0 0 .076-5.73 0-6l-1.5-5.07c-.11-.35-1.99-.63-4.23-.63h-62.6c-2.24 0-3.98.28-3.9.63 0 0-.056 5.75 0 6l.287 1.3h-9.31c0-.992 0-2.14-.016-2.23l-1.07-5.07c-.07-.35-1.93-.63-4.17-.63h-62.6c-2.24 0-4.01.28-3.96.63 0 0-.032 5.78 0 6l.18 1.3h-9.64c.001-1.03.012-2.15 0-2.23l-.64-5.07c-.05-.35-1.88-.63-4.12-.63h-62.6c-2.23 0-4.02.28-4 .63 0 0-.012 5.8 0 6l.07 1.3h-9.96v-2.23l-.222-5.07c-.01-.35-1.83-.63-4.06-.63h-62.6c-2.24 0-4.05.28-4.06.63l-.16 5.07c-.006.194.165.75.16.93l-.04 1.3h-10.1l.056-1.3c.006-.195-.226-.751-.221-.93l.22-5.07c.01-.35-1.78-.63-4.02-.63h-62.6c-2.24 0-4.07.28-4.11.63l-.59 5.07c-.008.08 0 1.19 0 2.23h-9.68l.165-1.3c.031-.218 0-6 0-6 .05-.35-1.72-.63-3.96-.63h-62.6c-2.24 0-4.1.28-4.17.63l-1.02 5.07c-.017.087-.013 1.24-.012 2.23h-9.34l.273-1.3c.049-.241 0-6 0-6 .07-.35-1.67-.63-3.91-.63h-62.6c-2.24 0-4.12.28-4.22.63l-1.45 5.07c-.075.263 0 6 0 6-.1.35 1.63.63 3.89.63h4.45l-2.18 7.92c-.022.079-.017 1.26-.015 2.3h-9.25l2.28-7.98c.06-.211 0-6 0-6 .1-.35-1.63-.641-3.89-.641h-4.94l.988-7.3c.11-.35-1.61-.631-3.85-.631h-62.6c-2.24 0-4.15.28-4.28.63l-1.87 5.07c-.046.123-.049 1.26-.041 2.49-.563.109-.976.237-1.03.382l-4.32 11.7c-.04.1-.044 1.15-.04 2.3h-8.86l3.03-7.98c.043-.106.046-1.25.04-2.49.579-.106 1-.234 1.06-.381l1.93-5.07c.108-.291 0-6 0-6 .13-.35-1.56-.631-3.8-.631h-62.6c-2.24 0-4.17.28-4.33.63l-2.31 5.07c-.056.123-.063 1.12-.057 2.23h-7.06c-.456 0-.884.02-1.3.042l.623-1.34c.154-.316 0-6 0-6 .17-.35-1.5-.631-3.74-.631h-62.6c-2.23 0-4.19.28-4.38.63l-2.73 5.07c-.071.132-.08 1.13-.072 2.23h-8.01l.715-1.3c.185-.34 0-6 0-6 .19-.35-1.46-.63-3.69-.63h-62.6c-2.24 0-4.22.28-4.43.63l-3.16 5.07c-.086.137-.097 1.13-.088 2.23h-7.68l.824-1.3c.222-.35 0-6 0-6 .222-.35-1.4-.63-3.64-.63h-72.7zm1303 0c-2.23 0-3.85.281-3.63.631 0 0-.22 5.65 0 6l3.27 5.07c.127.193.821.358 1.77.473-.013 1.17 0 2.26.088 2.4l7.53 11.7c.134.2.851.373 1.83.492-.014 1.2-.01 2.32.09 2.47l7.76 12c.14.213.882.394 1.89.518-.016 1.23-.01 2.39.092 2.54l8.01 12.4c.141.215.904.402 1.94.531-.018 1.26-.011 2.46.092 2.62l8.27 12.8c.25.4 2.39.721 4.79.721h67c2.4 0 4.09-.321 3.81-.721 0 0 .28-5.6 0-6l-9.22-12.8c-.166-.232-1.02-.425-2.15-.553.02-1.25.012-2.43-.106-2.6l-8.93-12.4c-.165-.224-.995-.41-2.09-.533.018-1.22.01-2.37-.106-2.53l-8.66-12c-.152-.217-.956-.398-2.03-.518.016-1.19.01-2.29-.102-2.44l-8.4-11.7c-.151-.203-.931-.378-1.97-.496.013-1.16 0-2.23-.098-2.37l-3.65-5.07c-.25-.35-2.25-.631-4.49-.631H1620zm-1070 12.3-3.71 7.96c-.054.115-.06 1.16-.053 2.3h-8.5l3.8-7.98c.051-.111.057-1.12.051-2.24h7.11c.454 0 .88-.018 1.3-.039zm910 0c.4.019.805.037 1.24.037h7.13c-.01 1.12 0 2.13.055 2.24l3.89 7.98h-8.46c.01-1.14 0-2.18-.057-2.3l-3.79-7.96zm-1102 .037h7.63l-5.19 7.92c-.092.139-.103 1.17-.092 2.3h-7.76l5.32-7.98c.092-.135.101-1.14.092-2.24zm91.7 0h8.01l-4.44 7.92c-.07.127-.079 1.16-.07 2.3h-8.13l4.56-7.98c.07-.124.078-1.13.07-2.24zm367 0h9.51l-1.42 7.92c-.012.064-.001 1.22 0 2.3h-9.61l1.52-7.98c.01-.064 0-1.2 0-2.24zm91.7 0h9.87l-.672 7.92c-.003.042 0 1.22 0 2.3h-9.96l.758-7.98c.005-.042 0-1.2 0-2.24zm91.7 0h10.2l.07 10.2h-10.3v-10.2zm92.1 0h9.83c0 1.04-.01 2.2 0 2.24l.84 7.98h-9.92v-2.3l-.752-7.92zm92.1 0h9.46c0 1.01 0 2.18.01 2.24l1.61 7.98h-9.55c.001-1.05 0-2.24-.01-2.3l-1.51-7.92zm-794 14.6h8l-5.12 8.34c-.087.143-.096 1.22-.084 2.38h-8.13l5.25-8.41c.086-.139.094-1.18.084-2.31zm93.1 0h8.37l-4.32 8.34c-.068.13-.074 1.21-.064 2.38h-8.49l4.45-8.41c.068-.126.076-1.17.068-2.31zm93.1 0h8.74l-3.54 8.34c-.046.117-.05 1.2-.043 2.38h-8.86l3.65-8.41c.05-.114.053-1.16.047-2.31zm93.1 0h9.11l-2.74 8.34c-.032.1-.036 1.19-.031 2.38h-9.21l2.85-8.41c.034-.098.037-1.15.033-2.31zm93.1 0h9.47l-1.94 8.34c-.018.078-.015 1.29-.014 2.38h-9.57l2.05-8.41c.017-.076.013-1.26.012-2.31zm93.1 0h9.83l-1.14 8.34c-.009.059-.001 1.25 0 2.38h-9.94l1.25-8.41c.008-.058 0-1.22 0-2.31zm93.1 0h10.2l-.354 8.34v2.38h-10.3l.447-8.41c.002-.035 0-1.22 0-2.31zm93.3 0h10.2v2.31l.447 8.41h-10.3v-2.38l-.354-8.34zm93.4 0h9.83c0 1.09-.01 2.25 0 2.31l1.25 8.41h-9.94c.001-1.13.01-2.32 0-2.38zm93.5 0h9.47c0 1.05 0 2.23.012 2.31l2.05 8.41h-9.57c0-1.09 0-2.3-.014-2.38l-1.94-8.34zm93.5 0h9.11c0 1.16 0 2.21.033 2.31l2.85 8.41h-9.21c0-1.19 0-2.28-.031-2.38l-2.74-8.34zm93.5 0h8.74c-.01 1.15 0 2.2.047 2.31l3.65 8.41h-8.85c.01-1.18 0-2.26-.045-2.38l-3.54-8.34zm93.5 0h8.37c-.01 1.14 0 2.18.068 2.31l4.45 8.41h-8.49c.01-1.17 0-2.25-.064-2.38l-4.32-8.34zm-1097 15h8.32l-5.12 8.79c-.083.14-.09 1.25-.078 2.45h-8.45l5.25-8.86c.082-.14.089-1.21.078-2.38zm105 0h8.72l-4.19 8.79c-.06.126-.064 1.24-.055 2.45h-8.85l4.31-8.86c.06-.126.065-1.21.057-2.38zm94.5 0h9.09l-3.35 8.79c-.044.111-.048 1.24-.041 2.45h-9.2l3.46-8.86c.044-.111.047-1.2.041-2.38zm94.5 0h9.46l-2.52 8.79c-.026.089-.022 1.32-.02 2.45h-9.56l2.62-8.86c.026-.088.023-1.29.02-2.38zm94.5 0h9.8l-1.67 8.79c-.013.073-.002 1.28 0 2.45h-9.93l1.79-8.86c.015-.073.013-1.28.012-2.38zm94.5 0h10.2l-.838 8.79c-.005.049 0 1.27 0 2.45h-10.3l.943-8.86c.005-.051 0-1.25 0-2.38zm94.5 0h10.5v11.2H990l.086-11.2zm94.9 0h10.2c0 1.13-.01 2.33 0 2.38l.844 8.86h-10.3v-2.45zm94.9 0h9.85c0 1.1-.01 2.31.01 2.38l1.68 8.86h-9.96c0-1.17.013-2.38 0-2.45zm94.9 0h9.49c0 1.09-.01 2.29.016 2.38l2.54 8.86h-9.61c0-1.13.01-2.36-.02-2.45l-2.42-8.79zm94.9 0h9.12c-.01 1.18 0 2.27.039 2.38l3.38 8.86h-9.25c.01-1.21 0-2.34-.041-2.45l-3.25-8.79zm94.9 0h8.77c-.01 1.18 0 2.26.055 2.38l4.22 8.86h-8.89c.01-1.21 0-2.32-.055-2.45zm-731 15.5h9.75l-2.35 9.25c-.025.09-.023 1.35-.02 2.53h-9.87l2.47-9.33c.023-.087.02-1.32.018-2.45zm96 0h10.1l-1.47 9.25c-.01.07-.002 1.31 0 2.53h-10.2l1.58-9.33c.01-.069.001-1.28 0-2.45zm96 0H936l-.594 9.25c-.002.044 0 1.3 0 2.53h-10.5l.693-9.33c.003-.045 0-1.27 0-2.45zm96.1 0h10.6v2.45l.291 9.33h-10.7v-2.53l-.195-9.25zm96.4 0h10.3c0 1.18-.01 2.39 0 2.45l1.18 9.33h-10.4c0-1.22.01-2.47 0-2.53zm96.4 0h9.9c0 1.14 0 2.37.014 2.45l2.07 9.33h-10c0-1.18 0-2.45-.014-2.53l-1.96-9.25zm96.4 0h9.55c-.01 1.22 0 2.35.033 2.45l2.96 9.33h-9.67c.01-1.25 0-2.42-.029-2.53l-2.84-9.25zm96.4 0h9.2c-.01 1.21 0 2.33.045 2.45l3.85 9.33h-9.32c.01-1.24 0-2.41-.045-2.53l-3.72-9.25zm88.8 20c-2.42 0-4.21.33-4.02.74 0 0-.159 5.66 0 6l2.38 4.99c.2.42 2.31.75 4.75.75h68.1c2.43 0 4.21-.33 3.98-.75 0 0 .205-5.63 0-6l-2.75-4.99c-.22-.41-2.35-.74-4.77-.74h-67.7zm175 0c-2.42 0-4.16.33-3.9.74 0 0-.253 5.6 0 6l3.23 4.99c.26.42 2.44.75 4.87.75h68.1c2.44 0 4.16-.33 3.86-.75 0 0 .3-5.58 0-6l-3.6-4.99c-.29-.41-2.47-.74-4.89-.74h-67.7z" fill="#191818" style="paint-order:stroke fill markers"/><path d="M317 969c-2.24 0-4.24.281-4.49.631l-3.65 5.07c-.254.35 1.35.629 3.61.629h73.2c2.25 0 4.25-.279 4.47-.629l3.22-5.07c.222-.35-1.4-.631-3.64-.631zm90.9 0c-2.24 0-4.22.281-4.43.631l-3.16 5.07c-.22.35 1.41.629 3.67.629h63c2.26 0 4.23-.279 4.42-.629l2.79-5.07c.19-.35-1.46-.631-3.69-.631zm80.8 0c-2.23 0-4.19.281-4.38.631l-2.73 5.07c-.19.35 1.47.629 3.72.629h63c2.25 0 4.2-.279 4.36-.629l2.36-5.07c.17-.35-1.5-.631-3.74-.631zm80.8 0c-2.24 0-4.17.281-4.33.631l-2.31 5.07c-.16.35 1.53.629 3.78.629h63c2.25 0 4.17-.279 4.31-.629l1.93-5.07c.13-.35-1.56-.631-3.8-.631zm80.8 0c-2.24 0-4.15.281-4.28.631l-1.87 5.07c-.13.35 1.57.629 3.83.629h63c2.25 0 4.15-.279 4.25-.629l1.5-5.07c.11-.35-1.61-.631-3.85-.631zm80.8 0c-2.24 0-4.12.281-4.22.631l-1.45 5.07c-.1.35 1.63.629 3.89.629h63c2.26 0 4.13-.279 4.21-.629l1.07-5.07c.07-.35-1.67-.631-3.91-.631zm80.8 0c-2.24 0-4.1.281-4.17.631l-1.02 5.07c-.07.35 1.69.629 3.94.629h63c2.25 0 4.1-.279 4.15-.629l.641-5.07c.05-.35-1.72-.631-3.96-.631zm80.8 0c-2.24 0-4.07.281-4.11.631l-.59 5.07c-.04.35 1.74.629 3.99.629h63c2.25 0 4.08-.279 4.09-.629l.221-5.07c.01-.35-1.78-.631-4.02-.631zm80.8 0c-2.24 0-4.05.281-4.06.631l-.16 5.07c-.01.35 1.8.629 4.05.629h63c2.25 0 4.05-.279 4.04-.629l-.221-5.07c-.01-.35-1.83-.631-4.06-.631zm80.8 0c-2.23 0-4.02.281-4 .631l.272 5.07c.01.35 1.84.629 4.1.629h63c2.25 0 4.03-.279 3.98-.629l-.641-5.07c-.05-.35-1.88-.631-4.12-.631zm80.8 0c-2.24 0-4.01.281-3.96.631l.701 5.07c.05.35 1.9.629 4.15.629h63c2.26 0 4.01-.279 3.93-.629l-1.07-5.07c-.07-.35-1.93-.631-4.17-.631zm80.8 0c-2.24 0-3.98.281-3.9.631l1.12 5.07c.08.35 1.96.629 4.21.629h63c2.25 0 3.98-.279 3.88-.629l-1.5-5.07c-.11-.35-1.99-.631-4.23-.631zm80.8 0c-2.24 0-3.95.281-3.85.631l1.56 5.07c.11.35 2.01.629 4.26.629h63c2.25 0 3.96-.279 3.82-.629l-1.93-5.07c-.13-.35-2.04-.631-4.28-.631zm80.8 0c-2.24 0-3.93.281-3.79.631l1.98 5.07c.14.35 2.06.629 4.32.629h63c2.25 0 3.93-.279 3.77-.629l-2.36-5.07c-.17-.35-2.1-.631-4.34-.631zm80.8 0c-2.24 0-3.9.281-3.74.631l2.42 5.07c.16.35 2.11.629 4.37.629h63c2.26 0 3.91-.279 3.72-.629l-2.79-5.07c-.19-.35-2.15-.631-4.39-.631zm80.8 0c-2.24 0-3.88.281-3.68.631l2.84 5.07c.2.35 2.17.629 4.42.629h63c2.25 0 3.89-.279 3.66-.629l-3.21-5.07c-.23-.35-2.21-.631-4.44-.631zm80.8 0c-2.23 0-3.85.281-3.63.631l3.27 5.07c.23.35 2.23.629 4.48.629h63c2.25 0 3.86-.279 3.61-.629l-3.65-5.07c-.25-.35-2.25-.631-4.49-.631zm-1308 7.93c-2.26 0-4.28.291-4.54.641l-8.4 11.7c-.261.36 1.37.65 3.66.65h43.3c2.29 0 4.32-.29 4.57-.65l7.78-11.7c.236-.35-1.39-.641-3.65-.641zm61.1 0c-2.26 0-4.26.291-4.49.641l-7.66 11.7c-.239.36 1.41.65 3.7.65h74.3c2.29 0 4.3-.29 4.51-.65l6.67-11.7c.2-.35-1.45-.641-3.71-.641zm91.6 0c-2.26 0-4.23.291-4.43.641l-6.55 11.7c-.2.36 1.47.65 3.76.65h74.3c2.28 0 4.26-.29 4.44-.65l5.56-11.7c.16-.35-1.52-.641-3.77-.641zm91.6 0c-2.26 0-4.21.291-4.37.641l-5.44 11.7c-.17.36 1.54.65 3.82.65h74.3c2.28 0 4.24-.29 4.38-.65l4.44-11.7c.14-.35-1.57-.641-3.83-.641zm91.6 0c-2.25 0-4.18.291-4.31.641l-4.32 11.7c-.14.36 1.6.65 3.88.65h74.3c2.29 0 4.21-.29 4.31-.65l3.34-11.7c.1-.35-1.63-.641-3.89-.641zm91.7 0c-2.26 0-4.15.291-4.25.641l-3.21 11.7c-.1.36 1.66.65 3.94.65h74.3c2.29 0 4.18-.29 4.25-.65l2.23-11.7c.06-.35-1.7-.641-3.95-.641zm91.6 0c-2.25 0-4.12.291-4.18.641l-2.1 11.7c-.07.36 1.72.65 4.01.65h74.3c2.29 0 4.16-.29 4.19-.65l1.11-11.7c.04-.35-1.75-.641-4.01-.641zm91.6 0c-2.26 0-4.1.291-4.13.641l-.99 11.7c-.03.36 1.79.65 4.08.65h74.3c2.29 0 4.13-.29 4.13-.65v-11.7c0-.35-1.82-.641-4.07-.641zm91.7 0c-2.26 0-4.07.291-4.07.641l.121 11.7c.01.36 1.85.65 4.14.65h74.3c2.29 0 4.1-.29 4.07-.65l-1.11-11.7c-.04-.35-1.88-.641-4.14-.641zm91.6 0c-2.25 0-4.04.291-4 .641l1.23 11.7c.04.36 1.91.65 4.2.65h74.3c2.29 0 4.08-.29 4.01-.65l-2.23-11.7c-.06-.35-1.93-.641-4.19-.641zm91.7 0c-2.26 0-4.02.291-3.95.641l2.35 11.7c.07.36 1.97.65 4.26.65h74.3c2.28 0 4.04-.29 3.94-.65l-3.34-11.7c-.1-.35-2-.641-4.26-.641zm91.6 0c-2.25 0-3.98.291-3.88.641l3.46 11.7c.11.36 2.03.65 4.32.65h74.3c2.28 0 4.01-.29 3.87-.65l-4.44-11.7c-.14-.35-2.06-.641-4.32-.641zm91.7 0c-2.26 0-3.96.291-3.82.641l4.57 11.7c.14.36 2.1.65 4.38.65h74.3c2.28 0 3.99-.29 3.81-.65l-5.56-11.7c-.16-.35-2.12-.641-4.37-.641zm91.7 0c-2.26 0-3.94.291-3.77.641l5.69 11.7c.17.36 2.16.65 4.44.65h136c2.29 0 3.94-.29 3.71-.65l-7.41-11.7c-.23-.35-2.22-.641-4.48-.641zm153 0c-2.26 0-3.89.291-3.66.641l7.53 11.7c.24.36 2.27.65 4.56.65h64c2.29 0 3.92-.29 3.66-.65l-8.4-11.7c-.26-.35-2.28-.641-4.54-.641zm-1324 14.6c-2.29 0-4.35.29-4.61.66l-8.66 12c-.269.38 1.38.68 3.71.68h85.9c2.32 0 4.38-.3 4.61-.68l7.51-12c.229-.37-1.43-.66-3.72-.66zm103 0c-2.29 0-4.32.29-4.54.66l-7.39 12c-.23.38 1.45.68 3.78.68h75.5c2.32 0 4.35-.3 4.55-.68l6.36-12c.2-.37-1.49-.66-3.78-.66zm93 0c-2.29 0-4.28.29-4.47.66l-6.24 12c-.2.38 1.52.68 3.84.68h75.4c2.32 0 4.32-.3 4.48-.68l5.22-12c.16-.37-1.55-.66-3.84-.66zm93 0c-2.29 0-4.26.29-4.41.66l-5.1 12c-.15.38 1.59.68 3.91.68h75.5c2.32 0 4.29-.3 4.42-.68l4.07-12c.13-.37-1.62-.66-3.91-.66zm93 0c-2.29 0-4.23.29-4.35.66l-3.95 12c-.12.38 1.65.68 3.97.68h75.4c2.32 0 4.27-.3 4.36-.68l2.93-12c.08-.37-1.69-.66-3.98-.66zm93 0c-2.29 0-4.2.29-4.29.66l-2.8 12c-.09.38 1.71.68 4.03.68h75.4c2.32 0 4.24-.3 4.29-.68l1.79-12c.05-.37-1.75-.66-4.04-.66zm93 0c-2.29 0-4.18.29-4.23.66l-1.65 12c-.06.38 1.77.68 4.09.68h75.4c2.33 0 4.21-.3 4.23-.68l.639-12c.02-.37-1.81-.66-4.1-.66zm93 0c-2.29 0-4.14.29-4.16.66l-.51 12c-.01.38 1.84.68 4.17.68h75.4c2.33 0 4.18-.3 4.17-.68l-.51-12c-.02-.37-1.87-.66-4.16-.66zm93 0c-2.29 0-4.12.29-4.1.66l.639 12c.02.38 1.9.68 4.23.68h75.4c2.32 0 4.15-.3 4.09-.68l-1.65-12c-.05-.37-1.94-.66-4.23-.66zm93 0c-2.29 0-4.09.29-4.04.66l1.79 12c.05.38 1.97.68 4.29.68h75.4c2.32 0 4.12-.3 4.03-.68l-2.8-12c-.09-.37-2-.66-4.29-.66zm93 0c-2.29 0-4.06.29-3.98.66l2.93 12c.09.38 2.04.68 4.36.68h75.4c2.32 0 4.09-.3 3.97-.68l-3.95-12c-.12-.37-2.06-.66-4.35-.66zm93 0c-2.29 0-4.04.29-3.91.66l4.07 12c.13.38 2.1.68 4.42.68h75.5c2.32 0 4.06-.3 3.91-.68l-5.1-12c-.15-.37-2.12-.66-4.41-.66zm93 0c-2.29 0-4 .29-3.84.66l5.22 12c.16.38 2.16.68 4.48.68h75.4c2.32 0 4.04-.3 3.84-.68l-6.24-12c-.19-.37-2.18-.66-4.47-.66zm93 0c-2.29 0-3.98.29-3.78.66l6.36 12c.2.38 2.23.68 4.55.68h96.4c2.32 0 4-.3 3.76-.68l-7.64-12c-.23-.37-2.26-.66-4.55-.66zm114 0c-2.3 0-3.95.29-3.71.66l7.76 12c.25.38 2.31.68 4.63.68h65c2.33 0 3.98-.3 3.71-.68l-8.66-12c-.26-.37-2.32-.66-4.61-.66zm-1344 15.1c-2.33 0-4.42.3-4.69.68l-8.93 12.4c-.278.38 1.4.699 3.76.699h119c2.36 0 4.44-.319 4.67-.699l7.36-12.4c.223-.38-1.47-.68-3.8-.68zm136 0c-2.33 0-4.37.3-4.59.68l-7.22 12.4c-.225.38 1.49.699 3.85.699h87.3c2.36 0 4.41-.319 4.6-.699l6.04-12.4c.18-.38-1.54-.68-3.87-.68zm105 0c-2.32 0-4.34.3-4.52.68l-5.91 12.4c-.18.38 1.57.699 3.93.699h76.6c2.36 0 4.38-.319 4.54-.699l4.85-12.4c.15-.38-1.6-.68-3.93-.68zm94.5 0c-2.33 0-4.32.3-4.46.68l-4.73 12.4c-.15.38 1.63.699 3.99.699h76.6c2.36 0 4.35-.319 4.47-.699l3.67-12.4c.11-.38-1.67-.68-3.99-.68zm94.5 0c-2.33 0-4.29.3-4.39.68l-3.55 12.4c-.11.38 1.7.699 4.06.699h76.6c2.36 0 4.32-.319 4.39-.699l2.5-12.4c.08-.38-1.74-.68-4.06-.68zm94.5 0c-2.32 0-4.25.3-4.33.68l-2.36 12.4c-.07.38 1.77.699 4.12.699h76.6c2.36 0 4.29-.319 4.33-.699l1.32-12.4c.04-.38-1.8-.68-4.13-.68zm94.5 0c-2.33 0-4.23.3-4.27.68l-1.18 12.4c-.04.38 1.83.699 4.19.699h76.6c2.36 0 4.26-.319 4.26-.699l.141-12.4c0-.38-1.87-.68-4.2-.68zm94.5 0c-2.33 0-4.2.3-4.2.68v12.4c0 .38 1.9.699 4.26.699h76.6c2.35 0 4.23-.319 4.19-.699l-1.05-12.4c-.03-.38-1.93-.68-4.25-.68zm94.5 0c-2.32 0-4.17.3-4.13.68l1.18 12.4c.04.38 1.96.699 4.32.699h76.6c2.36 0 4.2-.319 4.13-.699l-2.23-12.4c-.07-.38-1.99-.68-4.32-.68zm94.5 0c-2.32 0-4.14.3-4.06.68l2.36 12.4c.07.38 2.03.699 4.39.699h76.6c2.36 0 4.17-.319 4.06-.699l-3.41-12.4c-.1-.38-2.06-.68-4.39-.68zm94.5 0c-2.33 0-4.11.3-4.01.68l3.55 12.4c.11.38 2.1.699 4.46.699h76.6c2.35 0 4.14-.319 3.99-.699l-4.59-12.4c-.14-.38-2.13-.68-4.45-.68zm94.5 0c-2.33 0-4.08.3-3.94.68l4.73 12.4c.15.38 2.16.699 4.52.699h76.6c2.36 0 4.11-.319 3.93-.699l-5.78-12.4c-.17-.38-2.18-.68-4.51-.68zm94.5 0c-2.32 0-4.05.3-3.87.68l5.91 12.4c.18.38 2.23.699 4.59.699h151c2.36 0 4.06-.319 3.81-.699l-7.88-12.4c-.24-.38-2.3-.68-4.63-.68zm168 0c-2.33 0-4.01.3-3.76.68l8.01 12.4c.25.38 2.35.699 4.71.699h66c2.36 0 4.03-.319 3.76-.699l-8.93-12.4c-.28-.38-2.37-.68-4.69-.68zm-1365 15.5c-2.36 0-4.49.311-4.77.701l-9.21 12.8c-.288.4 1.41.721 3.81.721h164c2.4 0 4.5-.321 4.72-.721l7.05-12.8c.21-.39-1.52-.701-3.88-.701zm181 0c-2.36 0-4.43.311-4.64.701l-6.91 12.8c-.22.4 1.54.721 3.93.721h77.8c2.39 0 4.47-.321 4.65-.721l5.83-12.8c.18-.39-1.58-.701-3.95-.701zm96 0c-2.36 0-4.4.311-4.57.701l-5.69 12.8c-.18.4 1.6.721 4 .721h77.8c2.39 0 4.44-.321 4.58-.721l4.61-12.8c.14-.39-1.65-.701-4.01-.701zm96 0c-2.37 0-4.38.311-4.51.701l-4.47 12.8c-.14.4 1.67.721 4.07.721h77.9c2.39 0 4.41-.321 4.51-.721l3.39-12.8c.1-.39-1.72-.701-4.08-.701zm96 0c-2.36 0-4.34.311-4.44.701l-3.25 12.8c-.11.4 1.74.721 4.14.721h77.8c2.4 0 4.38-.321 4.45-.721l2.17-12.8c.06-.39-1.79-.701-4.15-.701zm95.9 0c-2.36 0-4.31.311-4.37.701l-2.04 12.8c-.06.4 1.82.721 4.21.721h77.8c2.4 0 4.35-.321 4.38-.721l.951-12.8c.03-.39-1.85-.701-4.21-.701zm96 0c-2.37 0-4.29.311-4.31.701l-.82 12.8c-.02.4 1.89.721 4.28.721h77.9c2.4 0 4.32-.321 4.31-.721l-.27-12.8c-.01-.39-1.92-.701-4.28-.701zm95.9 0c-2.36 0-4.26.311-4.24.701l.4 12.8c.02.4 1.95.721 4.35.721h77.8c2.39 0 4.28-.321 4.24-.721l-1.49-12.8c-.05-.39-1.99-.701-4.35-.701zm95.9 0c-2.36 0-4.22.311-4.17.701l1.62 12.8c.05.4 2.02.721 4.42.721h77.8c2.39 0 4.25-.321 4.17-.721l-2.71-12.8c-.08-.39-2.05-.701-4.42-.701zm96 0c-2.36 0-4.19.311-4.1.701l2.84 12.8c.09.4 2.09.721 4.49.721h77.8c2.4 0 4.23-.321 4.11-.721l-3.93-12.8c-.12-.39-2.12-.701-4.48-.701zm96 0c-2.36 0-4.17.311-4.04.701l4.06 12.8c.13.4 2.16.721 4.55.721h77.8c2.4 0 4.2-.321 4.04-.721l-5.15-12.8c-.16-.39-2.19-.701-4.55-.701zm96 0c-2.36 0-4.13.311-3.97.701l5.28 12.8c.17.4 2.23.721 4.62.721h218c2.39 0 4.12-.321 3.86-.721l-8.13-12.8c-.24-.39-2.35-.701-4.71-.701zm235 0c-2.36 0-4.06.311-3.81.701l8.27 12.8c.25.4 2.39.721 4.79.721h67c2.4 0 4.09-.321 3.81-.721l-9.22-12.8c-.28-.39-2.4-.701-4.77-.701zm-1387 16c-2.4 0-4.56.32-4.85.73l-9.51 13.2c-.296.42 1.43.75 3.86.75H337c2.43 0 4.61-.33 4.87-.75l8.39-13.2c.255-.41-1.47-.73-3.87-.73zm97.5 0c-2.4 0-4.53.32-4.79.73l-8.25 13.2c-.257.42 1.5.75 3.93.75h79.1c2.44 0 4.58-.33 4.8-.75l7.13-13.2c.22-.41-1.54-.73-3.94-.73zm97.5 0c-2.4 0-4.51.32-4.72.73l-6.99 13.2c-.22.42 1.56.75 4 .75h79.1c2.44 0 4.54-.33 4.73-.75l5.87-13.2c.18-.41-1.61-.73-4.01-.73zm97.5 0c-2.4 0-4.48.32-4.65.73l-5.74 13.2c-.17.42 1.64.75 4.08.75h79.1c2.43 0 4.51-.33 4.65-.75l4.62-13.2c.14-.41-1.68-.73-4.08-.73zm97.5 0c-2.4 0-4.45.32-4.58.73l-4.48 13.2c-.14.42 1.71.75 4.15.75h530c2.43 0 4.33-.33 4.26-.75l-2.38-13.2c-.07-.41-2.06-.73-4.46-.73zm542 0c-2.4 0-4.27.32-4.19.73l2.52 13.2c.07.42 2.1.75 4.53.75h79.1c2.43 0 4.3-.33 4.19-.75l-3.64-13.2c-.11-.41-2.13-.73-4.53-.73zm97.5 0c-2.4 0-4.24.32-4.12.73l3.77 13.2c.12.42 2.18.75 4.61.75h79.1c2.44 0 4.28-.33 4.12-.75l-4.89-13.2c-.15-.41-2.2-.73-4.6-.73zm97.5 0c-2.4 0-4.21.32-4.05.73l5.03 13.2c.16.42 2.25.75 4.68.75h79.1c2.44 0 4.24-.33 4.05-.75l-6.15-13.2c-.19-.41-2.27-.73-4.67-.73zm184 0c-2.4 0-4.15.32-3.92.73l2.75 4.91c.23.41 2.36.74 4.77.74h67.6c2.41 0 4.15-.33 3.89-.74l-3.12-4.91c-.26-.41-2.39-.73-4.8-.73zm-82.7 8.21c-2.42 0-4.21.33-4.02.74l2.38 4.99c.2.42 2.31.75 4.75.75h68.1c2.43 0 4.21-.33 3.98-.75l-2.75-4.99c-.22-.41-2.35-.74-4.77-.74zm87.3 0c-2.42 0-4.18.33-3.95.74l2.8 4.99c.23.42 2.38.75 4.81.75h68.1c2.43 0 4.18-.33 3.92-.75l-3.17-4.99c-.26-.41-2.42-.74-4.84-.74zm87.3 0c-2.42 0-4.16.33-3.9.74l3.23 4.99c.26.42 2.44.75 4.87.75h68.1c2.44 0 4.16-.33 3.86-.75l-3.6-4.99c-.29-.41-2.47-.74-4.89-.74z" fill="url(#m)" style="paint-order:stroke fill markers"/><path d="M1617 970c-.31.096-.513.202-.438.322l3.27 5.07c.23.35 2.23.629 4.48.629h63c2.25 0 3.86-.279 3.61-.629l-.477-.662c-.6.172-1.7.291-3.13.291h-63c-2.25 0-4.25-.279-4.48-.629zm-1224 .002-2.79 4.39c-.224.35-2.22.629-4.47.629h-73.2c-1.43 0-2.53-.12-3.13-.291l-.477.662c-.254.35 1.35.629 3.61.629h73.2c2.25 0 4.25-.279 4.47-.629l3.22-5.07c.076-.12-.125-.225-.432-.32zm1143 .018c-.275.09-.455.19-.391.303l2.84 5.07c.2.35 2.17.629 4.42.629h63c2.25 0 3.89-.28 3.66-.63l-.432-.681c-.593.182-1.75.31-3.23.31h-63c-2.25 0-4.22-.278-4.42-.628zm-1062 .002-2.4 4.37c-.19.35-2.16.629-4.42.629h-63c-1.49 0-2.65-.128-3.24-.312l-.426.684c-.22.35 1.41.629 3.67.629h63c2.26 0 4.23-.28 4.42-.63l2.79-5.07c.06-.11-.116-.21-.385-.3zm981 .017c-.239.086-.389.18-.342.283l2.42 5.07c.16.35 2.11.63 4.37.63h63c2.26 0 3.91-.28 3.72-.63l-.385-.7c-.582.193-1.79.33-3.33.33h-63c-2.26 0-4.21-.28-4.37-.63zm-900 .002-2.03 4.35c-.16.35-2.11.63-4.36.63h-63c-1.54 0-2.76-.138-3.34-.333l-.379.703c-.19.35 1.47.63 3.72.63h63c2.25 0 4.2-.28 4.36-.63l2.36-5.07c.05-.103-.097-.196-.334-.28zm819 .018c-.207.08-.325.169-.287.264l1.98 5.07c.14.35 2.06.629 4.32.629h63c2.25 0 3.93-.28 3.77-.63l-.336-.72c-.571.206-1.84.35-3.43.35h-63c-2.26 0-4.18-.28-4.32-.63zm-738 .004-1.65 4.33c-.14.35-2.06.629-4.31.629h-63c-1.6 0-2.88-.144-3.45-.352l-.33.723c-.16.35 1.53.629 3.78.629h63c2.25 0 4.17-.28 4.31-.63l1.93-5.07c.035-.093-.08-.18-.281-.26zm657 .02c-.172.073-.259.154-.234.24l1.56 5.07c.11.35 2.01.628 4.26.628h63c2.25 0 3.96-.279 3.82-.629l-.281-.738c-.556.217-1.89.367-3.54.367h-63c-2.25 0-4.15-.279-4.26-.629zm-576 .001-1.27 4.31c-.1.35-2 .63-4.25.63h-63c-1.66 0-3.01-.153-3.56-.372l-.273.742c-.13.35 1.57.63 3.83.63h63c2.25 0 4.15-.28 4.25-.63l1.5-5.07c.027-.084-.058-.165-.227-.238zm496 .04c-.12.062-.194.128-.178.198l1.12 5.07c.08.35 1.96.63 4.21.63h63c2.25 0 3.98-.28 3.88-.63l-.226-.766c-.53.232-1.94.395-3.65.395h-63c-2.25 0-4.13-.279-4.21-.629zm-415 .007-.9 4.26c-.08.35-1.95.63-4.21.63h-63c-1.73 0-3.15-.165-3.67-.399l-.221.77c-.1.35 1.63.63 3.89.63h63c2.26 0 4.13-.28 4.21-.63l1.07-5.07c.014-.067-.058-.13-.17-.19zm334 .036c-.075.05-.125.102-.117.156l.701 5.07c.05.35 1.9.629 4.15.629h63c2.26 0 4.01-.28 3.93-.63l-.17-.806c-.47.253-1.94.436-3.76.436h-63c-2.25 0-4.1-.28-4.15-.63zm-253 .006-.533 4.22c-.05.35-1.9.629-4.15.629h-63c-1.83 0-3.31-.185-3.78-.441l-.164.812c-.07.35 1.69.629 3.94.629h63c2.25 0 4.1-.28 4.15-.63l.641-5.07c.007-.052-.038-.101-.107-.15zm172 .066c-.022.028-.051.055-.049.084l.272 5.07c.01.35 1.84.629 4.1.629h63c2.25 0 4.03-.279 3.98-.629l-.108-.85c-.397.276-1.96.479-3.87.479h-63c-2.26 0-4.09-.279-4.1-.629zm-91 .018-.18 4.14c-.01.35-1.84.629-4.09.629h-63c-1.93 0-3.5-.205-3.89-.484l-.1.855c-.04.35 1.74.629 3.99.629h63c2.25 0 4.08-.28 4.09-.63l.221-5.07c.001-.022-.026-.044-.04-.066zm10 4.19-.03.95c-.01.35 1.8.63 4.05.63h63c2.25 0 4.05-.28 4.04-.63l-.04-.933c-.207.318-1.9.562-4 .562h-63c-2.14 0-3.87-.254-4.02-.58zm-612 3.49-7.34 11c-.242.36-2.28.65-4.57.65h-43.3c-1.42 0-2.58-.112-3.2-.283l-.455.633c-.261.36 1.37.65 3.66.65h43.3c2.29 0 4.32-.29 4.57-.65l7.78-11.7c.083-.123-.126-.232-.447-.33zm1264 .006c-.312.097-.515.204-.436.324l7.53 11.7c.24.36 2.27.65 4.56.65h64c2.29 0 3.92-.29 3.66-.65l-.455-.633c-.619.17-1.78.283-3.21.283h-64c-2.29 0-4.32-.29-4.56-.65zm-1173 .017-6.27 11c-.21.36-2.22.65-4.51.65h-74.3c-1.5 0-2.66-.13-3.26-.318l-.438.668c-.239.36 1.41.65 3.7.65h74.3c2.29 0 4.3-.29 4.51-.65l6.67-11.7c.065-.113-.118-.214-.396-.307zm1020 .02c-.244.087-.398.183-.348.287l5.69 11.7c.17.36 2.16.65 4.44.65h136c2.29 0 3.94-.29 3.71-.65l-.426-.672c-.596.19-1.77.322-3.28.322h-136c-2.28 0-4.27-.29-4.44-.65zm-928 .004-5.22 11c-.18.36-2.16.65-4.44.65h-74.3c-1.56 0-2.79-.14-3.37-.34l-.387.689c-.2.36 1.47.65 3.76.65h74.3c2.28 0 4.26-.29 4.44-.65l5.56-11.7c.047-.103-.103-.196-.342-.283zm836 .017c-.207.082-.325.171-.287.266l4.57 11.7c.14.36 2.1.65 4.38.65h74.3c2.28 0 3.99-.29 3.81-.65l-.338-.709c-.578.212-1.86.36-3.47.36h-74.3c-2.28 0-4.24-.29-4.38-.65zm-744 .002-4.16 10.9c-.14.36-2.1.65-4.38.65h-74.3c-1.62 0-2.91-.15-3.49-.363l-.332.713c-.17.36 1.54.65 3.82.65h74.3c2.28 0 4.24-.29 4.38-.65l4.44-11.7c.038-.094-.075-.183-.279-.264zm653 .028c-.164.073-.25.153-.227.236l3.46 11.7c.11.36 2.03.65 4.32.65h74.3c2.28 0 4.01-.29 3.87-.65l-.279-.732c-.56.225-1.92.383-3.59.383h-74.3c-2.29 0-4.21-.29-4.32-.65zm-561 .004-3.12 10.9c-.1.36-2.02.65-4.31.65h-74.3c-1.68 0-3.05-.158-3.61-.385l-.271.734c-.14.36 1.6.65 3.88.65h74.3c2.29 0 4.21-.29 4.31-.65l3.34-11.7c.023-.082-.061-.16-.221-.232zm469 .043c-.108.06-.177.124-.164.189l2.35 11.7c.07.36 1.97.65 4.26.65h74.3c2.28 0 4.04-.29 3.94-.65l-.219-.768c-.525.244-1.96.418-3.72.418h-74.3c-2.29 0-4.19-.29-4.26-.65zm-377 .008-2.07 10.9c-.07.36-1.96.65-4.25.65h-74.3c-1.77 0-3.21-.176-3.73-.422l-.213.77c-.1.36 1.66.65 3.94.65h74.3c2.29 0 4.18-.29 4.25-.65l2.23-11.7c.01-.063-.056-.123-.156-.181zm286 .04c-.06.046-.095.093-.09.142l1.23 11.7c.04.36 1.91.65 4.2.65h74.3c2.29 0 4.08-.29 4.01-.65l-.156-.814c-.458.268-1.98.465-3.85.465h-74.3c-2.29 0-4.16-.29-4.2-.65zm-194 .005-1.03 10.8c-.03.36-1.9.65-4.19.65h-74.3c-1.89 0-3.42-.198-3.86-.47l-.146.819c-.07.36 1.72.65 4.01.65h74.3c2.29 0 4.16-.29 4.19-.65l1.11-11.7c.005-.047-.026-.093-.082-.137zm102 .12c0 .006-.01.011-.01.016l.121 11.7c.01.36 1.85.65 4.14.65h74.3c2.29 0 4.1-.29 4.07-.65l-.082-.863c-.371.294-2 .514-3.99.514h-74.3c-2.29 0-4.13-.29-4.14-.65zm-10.2 10.7c0 .36-1.84.65-4.13.65h-74.3c-2 0-3.64-.222-4.01-.52l-.074.87c-.03.36 1.79.65 4.08.65h74.3c2.29 0 4.13-.29 4.13-.65zm631 3.61c-.338.103-.501.223-.416.355l7.76 12c.25.38 2.31.68 4.63.68h65c2.33 0 3.98-.3 3.71-.68l-.443-.617c-.622.18-1.81.297-3.27.297h-65c-2.32 0-4.38-.3-4.63-.68zm-1242 .007-7.11 11.4c-.234.38-2.29.68-4.61.68h-85.9c-1.45 0-2.64-.116-3.26-.297l-.443.617c-.269.38 1.38.68 3.71.68h85.9c2.32 0 4.38-.3 4.61-.68l7.51-12c.08-.13-.081-.247-.408-.348zm93.1.039-5.99 11.3c-.2.38-2.23.68-4.55.68h-75.5c-1.53 0-2.76-.131-3.38-.328l-.398.648c-.23.38 1.45.68 3.78.68h75.5c2.32 0 4.35-.3 4.55-.68l6.36-12c.062-.114-.105-.216-.365-.31zm1035 0c-.261.093-.427.194-.365.309l6.36 12c.2.38 2.23.68 4.55.68h96.4c2.32 0 4-.3 3.76-.68l-.408-.642c-.615.193-1.84.322-3.35.322h-96.4c-2.32 0-4.35-.3-4.55-.68zm-942 .023-4.91 11.3c-.16.38-2.16.68-4.48.68h-75.4c-1.6 0-2.89-.143-3.49-.355l-.352.676c-.2.38 1.52.68 3.84.68h75.4c2.32 0 4.32-.3 4.48-.68l5.22-12c.045-.104-.088-.198-.311-.285zm849 0c-.222.087-.356.181-.31.285l5.22 12c.16.38 2.16.68 4.48.68h75.4c2.32 0 4.04-.3 3.84-.68l-.352-.676c-.598.212-1.89.355-3.49.355h-75.4c-2.32 0-4.32-.3-4.48-.68zm-756 .022-3.82 11.3c-.13.38-2.1.68-4.42.68h-75.5c-1.68 0-3.03-.161-3.61-.392l-.303.713c-.15.38 1.59.68 3.91.68h75.5c2.32 0 4.29-.3 4.42-.68l4.07-12c.033-.095-.061-.183-.25-.264zm663 0c-.189.08-.283.169-.25.264l4.07 12c.13.38 2.1.68 4.42.68h75.5c2.32 0 4.06-.3 3.91-.68l-.303-.713c-.574.23-1.93.392-3.61.392h-75.5c-2.32 0-4.29-.3-4.42-.68zm-569 .048-2.74 11.2c-.09.38-2.04.68-4.36.68h-75.4c-1.74 0-3.17-.17-3.73-.416l-.242.736c-.12.38 1.65.68 3.97.68h75.4c2.32 0 4.27-.3 4.36-.68l2.93-12c.017-.076-.063-.147-.191-.215zm476 0c-.129.068-.208.14-.191.215l2.93 12c.09.38 2.04.68 4.36.68h75.4c2.32 0 4.09-.3 3.97-.68l-.242-.736c-.554.245-1.99.416-3.73.416h-75.4c-2.32 0-4.27-.3-4.36-.68zm-383 .047-1.67 11.2c-.05.38-1.97.68-4.29.68h-75.4c-1.85 0-3.36-.192-3.85-.463l-.182.783c-.09.38 1.71.68 4.03.68h75.4c2.32 0 4.24-.3 4.29-.68l1.79-12c.008-.058-.044-.114-.123-.168zm290 0c-.079.054-.131.11-.123.168l1.79 12c.05.38 1.97.68 4.29.68h75.4c2.32 0 4.12-.3 4.03-.68l-.182-.783c-.491.271-2 .463-3.85.463h-75.4c-2.32 0-4.24-.3-4.29-.68zm-197 .082-.59 11.1c-.02.38-1.9.68-4.23.68h-75.4c-1.96 0-3.57-.215-3.98-.512l-.113.832c-.06.38 1.77.68 4.09.68h75.4c2.33 0 4.21-.3 4.23-.68l.639-12c.002-.03-.028-.057-.049-.086zm104 0c-.021.029-.05.057-.049.086l.639 12c.02.38 1.9.68 4.23.68h75.4c2.32 0 4.15-.3 4.09-.68l-.113-.832c-.413.296-2.01.512-3.98.512h-75.4c-2.33 0-4.21-.3-4.23-.68zm-93.6 11.2-.04.932c-.01.38 1.84.68 4.17.68h75.4c2.33 0 4.18-.3 4.17-.68l-.038-.932c-.2.347-1.94.611-4.13.611h-75.4c-2.19 0-3.93-.265-4.13-.61zm683 3.63c-.338.105-.501.23-.412.363l8.01 12.4c.25.38 2.35.7 4.71.7h66c2.36 0 4.03-.32 3.76-.7l-.441-.613c-.628.188-1.84.312-3.32.312h-66c-2.36 0-4.46-.319-4.71-.699zm-1230 .018-6.97 11.8c-.229.38-2.31.7-4.67.7h-119c-1.48 0-2.69-.127-3.31-.313l-.441.613c-.278.38 1.4.7 3.76.7h119c2.36 0 4.44-.32 4.67-.7l7.36-12.4c.075-.127-.081-.245-.389-.346zm105 .033-5.71 11.7c-.19.38-2.24.7-4.6.7h-87.3c-1.58 0-2.86-.145-3.47-.355l-.381.654c-.225.38 1.49.7 3.85.7h87.3c2.36 0 4.41-.32 4.6-.7l6.04-12.4c.054-.114-.08-.219-.334-.312zm957 .012c-.238.091-.384.19-.332.301l5.91 12.4c.18.38 2.23.7 4.59.7h151c2.36 0 4.06-.32 3.81-.7l-.404-.637c-.62.2-1.87.336-3.41.336h-151c-2.36 0-4.41-.319-4.59-.699zm-862 .02-4.57 11.7c-.16.38-2.18.698-4.54.698h-76.6c-1.66 0-3.01-.16-3.6-.387l-.328.688c-.18.38 1.57.7 3.93.7h76.6c2.36 0 4.38-.32 4.54-.7l4.85-12.4c.04-.102-.074-.195-.281-.28zm767 0c-.203.084-.312.176-.275.276l4.73 12.4c.15.38 2.16.7 4.52.7h76.6c2.36 0 4.11-.32 3.93-.7l-.322-.689c-.593.228-1.94.39-3.61.39h-76.6c-2.36 0-4.37-.32-4.52-.7zm-673 .028-3.45 11.7c-.12.38-2.11.7-4.47.7h-76.6c-1.74 0-3.15-.176-3.72-.419l-.273.72c-.15.38 1.63.698 3.99.698h76.6c2.36 0 4.35-.319 4.47-.699l3.67-12.4c.026-.089-.06-.17-.223-.248zm578 .01c-.155.075-.24.156-.217.242l3.55 12.4c.11.38 2.1.7 4.46.7h76.6c2.35 0 4.14-.32 3.99-.7l-.266-.72c-.568.244-1.99.42-3.72.42h-76.6c-2.36 0-4.35-.32-4.46-.7zm-484 .043-2.34 11.6c-.07.38-2.03.7-4.39.7h-76.6c-1.83 0-3.31-.194-3.84-.456l-.217.756c-.11.38 1.7.7 4.06.7h76.6c2.36 0 4.32-.32 4.39-.7l2.5-12.4c.015-.07-.056-.136-.162-.199zm389 0c-.1.062-.167.127-.152.195l2.36 12.4c.07.38 2.03.7 4.39.7h76.6c2.36 0 4.17-.32 4.06-.7l-.209-.76c-.525.265-2.01.46-3.85.46h-76.6c-2.36 0-4.32-.32-4.39-.7zm-294 .045-1.23 11.6c-.04.38-1.97.7-4.33.7h-76.6c-1.93 0-3.5-.219-3.96-.507l-.154.807c-.07.38 1.77.7 4.12.7h76.6c2.36 0 4.29-.32 4.33-.7l1.32-12.4c.005-.052-.03-.102-.09-.15zm200 .01c-.057.047-.087.095-.082.144l1.18 12.4c.04.38 1.96.7 4.32.7h76.6c2.36 0 4.2-.32 4.13-.7l-.146-.81c-.455.29-2.03.51-3.98.51h-76.6c-2.36 0-4.28-.319-4.32-.699zm-105 .127-.129 11.4c0 .38-1.9.7-4.26.7h-76.6c-2.05 0-3.73-.243-4.11-.556l-.082.855c-.04.38 1.83.7 4.19.7h76.6c2.36 0 4.26-.32 4.26-.7l.141-12.4c0-.01-.01-.01-.012-.018zm10.5 11.4v1c0 .38 1.9.7 4.26.7h76.6c2.35 0 4.23-.32 4.19-.7l-.072-.86c-.365.315-2.06.56-4.12.56h-76.6c-2.36 0-4.26-.319-4.26-.699zm651 3.78c-.334.107-.496.233-.408.37l8.27 12.8c.25.4 2.39.72 4.79.72h67c2.4 0 4.09-.32 3.81-.72l-.434-.603c-.632.195-1.86.322-3.38.322h-67c-2.4 0-4.54-.32-4.79-.72zm-1206 .031-6.69 12.1c-.22.4-2.32.721-4.72.721h-164c-1.51 0-2.74-.128-3.38-.322l-.432.602c-.288.4 1.41.721 3.81.721h164c2.4 0 4.5-.32 4.72-.72l7.05-12.8c.067-.125-.081-.238-.365-.339zm96.1.027-5.52 12.1c-.18.4-2.26.721-4.65.721h-77.8c-1.64 0-2.97-.153-3.58-.377l-.354.656c-.22.4 1.54.721 3.93.721h77.8c2.39 0 4.47-.32 4.65-.72l5.83-12.8c.052-.114-.074-.218-.314-.31zm875 .014c-.22.09-.333.19-.289.297l5.28 12.8c.17.4 2.23.721 4.62.721h218c2.39 0 4.12-.32 3.86-.72l-.398-.628c-.624.208-1.89.348-3.46.348h-218c-2.39 0-4.45-.32-4.62-.72zm-779 .018-4.35 12.1c-.14.4-2.19.721-4.58.721h-77.8c-1.72 0-3.1-.166-3.7-.406l-.305.686c-.18.4 1.6.721 4 .721h77.8c2.39 0 4.44-.32 4.58-.72l4.61-12.8c.036-.1-.064-.194-.26-.28zm683 .014c-.177.082-.264.171-.232.266l4.06 12.8c.13.4 2.16.721 4.55.721h77.8c2.4 0 4.2-.32 4.04-.72l-.281-.7c-.583.248-2.01.42-3.76.42h-77.8c-2.39 0-4.42-.32-4.55-.72zm-587 .03-3.19 12c-.1.4-2.12.72-4.51.72h-77.9c-1.79 0-3.25-.179-3.82-.436l-.25.715c-.14.4 1.67.721 4.07.721h77.9c2.39 0 4.41-.32 4.51-.72l3.39-12.8c.021-.085-.061-.163-.203-.237zm491 .02c-.117.068-.191.14-.174.215l2.84 12.8c.09.4 2.09.721 4.49.721h77.8c2.4 0 4.23-.32 4.11-.72l-.227-.737c-.549.268-2.04.457-3.88.457h-77.8c-2.4 0-4.4-.32-4.49-.72zm-395 .03-2.03 12c-.07.4-2.05.72-4.45.72h-77.8c-1.9 0-3.43-.2-3.95-.482l-.193.762c-.11.4 1.74.721 4.14.721h77.8c2.4 0 4.38-.32 4.45-.72l2.17-12.8c.01-.066-.05-.127-.139-.187zm299 .021c-.069.053-.113.107-.106.164l1.62 12.8c.05.4 2.02.721 4.42.721h77.8c2.39 0 4.25-.32 4.17-.72l-.166-.788c-.482.295-2.06.508-4 .508h-77.8c-2.4 0-4.37-.32-4.42-.72zm-203 .041-.887 11.9c-.03.4-1.98.721-4.38.721h-77.8c-2.01 0-3.64-.228-4.08-.537l-.131.816c-.06.4 1.82.721 4.21.721h77.8c2.4 0 4.35-.32 4.38-.72l.951-12.8c.003-.043-.025-.084-.064-.124zm107 .07c-.01.018-.03.035-.029.053l.4 12.8c.02.4 1.95.721 4.35.721h77.8c2.39 0 4.28-.32 4.24-.72l-.098-.84c-.402.321-2.08.56-4.14.56h-77.8c-2.4 0-4.33-.32-4.35-.72zm-10.4 11.9c-.1.383-1.96.686-4.29.686h-77.9c-2.18 0-3.94-.266-4.22-.615l-.057.895c-.02.4 1.89.721 4.28.721h77.9c2.4 0 4.32-.32 4.31-.72zm-672 3.85-8 12.6c-.262.42-2.43.75-4.87.75h-79.1c-1.55 0-2.8-.133-3.44-.338l-.424.588c-.296.42 1.43.75 3.86.75h79.1c2.43 0 4.61-.33 4.87-.75l8.39-13.2c.087-.14-.071-.269-.395-.379zm1226 .022c-.287.105-.433.226-.359.357l2.75 4.91c.23.41 2.36.74 4.77.74h67.6c2.41 0 4.15-.33 3.89-.74l-.394-.619c-.626.215-1.91.36-3.49.36h-67.6c-2.41 0-4.54-.33-4.77-.74zm-1128 .01-6.78 12.6c-.22.42-2.36.75-4.8.75h-79.1c-1.62 0-2.92-.146-3.54-.367l-.387.617c-.257.42 1.5.75 3.93.75h79.1c2.44 0 4.58-.33 4.8-.75l7.13-13.2c.069-.128-.074-.246-.352-.35zm97.6.03-5.57 12.5c-.19.42-2.29.75-4.73.75h-79.1c-1.69 0-3.05-.16-3.66-.397l-.342.646c-.22.42 1.56.75 4 .75h79.1c2.44 0 4.54-.33 4.73-.75l5.87-13.2c.05-.116-.07-.224-.303-.32zm846 .02c-.206.09-.308.192-.266.3l5.03 13.2c.16.42 2.25.75 4.68.75h79.1c2.44 0 4.24-.33 4.05-.75l-.31-.668c-.599.25-2 .418-3.74.418h-79.1c-2.43 0-4.52-.33-4.68-.75zm-748 .011-4.37 12.5c-.14.42-2.22.75-4.65.75h-79.1c-1.77 0-3.19-.175-3.79-.43l-.295.68c-.17.42 1.64.75 4.08.75h79.1c2.43 0 4.51-.33 4.65-.75l4.62-13.2c.035-.104-.055-.2-.248-.289zm651 .031c-.153.08-.238.166-.211.258l3.77 13.2c.12.42 2.18.75 4.61.75h79.1c2.44 0 4.28-.33 4.12-.75l-.258-.695c-.579.265-2.05.445-3.86.445h-79.1c-2.43 0-4.49-.33-4.61-.75zm-97.6.053c-.1.066-.166.132-.152.205l2.52 13.2c.07.42 2.1.75 4.53.75h79.1c2.43 0 4.3-.33 4.19-.75l-.205-.744c-.531.29-2.08.494-3.98.494h-79.1c-2.43 0-4.46-.33-4.53-.75zm472 8.04c-.33.112-.49.242-.4.383l3.23 4.99c.26.42 2.44.75 4.87.75h68.1c2.44 0 4.16-.33 3.86-.75l-.424-.588c-.637.204-1.89.338-3.44.338h-68.1c-2.43 0-4.61-.33-4.87-.75zm-87.4.025c-.288.106-.435.227-.361.357l2.8 4.99c.23.42 2.38.75 4.81.75h68.1c2.43 0 4.18-.33 3.92-.75l-.391-.615c-.628.22-1.92.365-3.53.365h-68.1c-2.43 0-4.58-.33-4.81-.75zm-87.5.027c-.247.1-.376.211-.32.33l2.38 4.99c.2.42 2.31.75 4.75.75h68.1c2.43 0 4.21-.33 3.98-.75l-.354-.64c-.616.232-1.96.39-3.63.39h-68.1c-2.44 0-4.55-.33-4.75-.75zm-305 4.52c-.461.318-2.1.547-4.12.547h-530c-1.84 0-3.34-.187-3.91-.459l-.24.71c-.14.42 1.71.75 4.15.75h530c2.43 0 4.33-.33 4.26-.75z" fill="#fff" opacity=".1" style="paint-order:stroke fill markers"/></g><path d="M628 1062h745c2.46 0 4.55.34 4.71.76l24.1 67.1c.17.48-1.8.86-4.42.86h-794c-2.62 0-4.59-.38-4.42-.86l24.1-67.1c.16-.42 2.25-.76 4.71-.76z" fill="#232021" style="paint-order:stroke fill markers"/><path d="M628 1064h745c2.46 0 4.55.34 4.71.76l24.1 67.1c.17.48-1.8.86-4.42.86h-794c-2.62 0-4.59-.38-4.42-.86l24.1-67.1c.16-.42 2.25-.76 4.71-.76z" fill="#686067" style="paint-order:stroke fill markers"/><path d="M628 1063h745c2.46 0 4.55.34 4.71.76l24.1 67.1c.17.48-1.8.86-4.42.86h-794c-2.62 0-4.59-.38-4.42-.86l24.1-67.1c.16-.42 2.25-.76 4.71-.76z" fill="#343031" style="paint-order:stroke fill markers"/><path d="M200 960c-22.2 0-42.5 2.76-45.5 6.21l-147 165c-4.26 4.79 13.5 8.68 39.9 8.68h1905c26.4 0 44.2-3.89 39.9-8.68l-147-165c-3.07-3.45-23.4-6.21-45.5-6.21zm121 6.21h1359c13.9 0 26.5 1.75 28.1 3.92l60.9 82.2c1.91 2.58-8.84 4.67-24.1 4.67h-1489c-15.3 0-26-2.09-24.1-4.67l60.9-82.2c1.62-2.18 14.1-3.92 28.1-3.92zm-3.25 3.14c-2.24 0-4.24.281-4.49.631l-3.65 5.07c-.254.35 1.35.629 3.61.629h73.2c2.25 0 4.25-.279 4.47-.629l3.22-5.07c.222-.35-1.4-.631-3.64-.631zm90.9 0c-2.24 0-4.22.281-4.43.631l-3.16 5.07c-.22.35 1.41.629 3.67.629h63c2.26 0 4.23-.279 4.42-.629l2.79-5.07c.19-.35-1.46-.631-3.69-.631zm80.8 0c-2.23 0-4.19.281-4.38.631l-2.73 5.07c-.19.35 1.47.629 3.72.629h63c2.25 0 4.2-.279 4.36-.629l2.36-5.07c.17-.35-1.5-.631-3.74-.631zm80.8 0c-2.24 0-4.17.281-4.33.631l-2.31 5.07c-.16.35 1.53.629 3.78.629h63c2.25 0 4.17-.279 4.31-.629l1.93-5.07c.13-.35-1.56-.631-3.8-.631zm80.8 0c-2.24 0-4.15.281-4.28.631l-1.87 5.07c-.13.35 1.57.629 3.83.629h63c2.25 0 4.15-.279 4.25-.629l1.5-5.07c.11-.35-1.61-.631-3.85-.631zm80.8 0c-2.24 0-4.12.281-4.22.631l-1.45 5.07c-.1.35 1.63.629 3.89.629h63c2.26 0 4.13-.279 4.21-.629l1.07-5.07c.07-.35-1.67-.631-3.91-.631zm80.8 0c-2.24 0-4.1.281-4.17.631l-1.02 5.07c-.07.35 1.69.629 3.94.629h63c2.25 0 4.1-.279 4.15-.629l.641-5.07c.05-.35-1.72-.631-3.96-.631zm80.8 0c-2.24 0-4.07.281-4.11.631l-.59 5.07c-.04.35 1.74.629 3.99.629h63c2.25 0 4.08-.279 4.09-.629l.221-5.07c.01-.35-1.78-.631-4.02-.631zm80.8 0c-2.24 0-4.05.281-4.06.631l-.16 5.07c-.01.35 1.8.629 4.05.629h63c2.25 0 4.05-.279 4.04-.629l-.221-5.07c-.01-.35-1.83-.631-4.06-.631zm80.8 0c-2.23 0-4.02.281-4 .631l.272 5.07c.01.35 1.84.629 4.1.629h63c2.25 0 4.03-.279 3.98-.629l-.641-5.07c-.05-.35-1.88-.631-4.12-.631zm80.8 0c-2.24 0-4.01.281-3.96.631l.701 5.07c.05.35 1.9.629 4.15.629h63c2.26 0 4.01-.279 3.93-.629l-1.07-5.07c-.07-.35-1.93-.631-4.17-.631zm80.8 0c-2.24 0-3.98.281-3.9.631l1.12 5.07c.08.35 1.96.629 4.21.629h63c2.25 0 3.98-.279 3.88-.629l-1.5-5.07c-.11-.35-1.99-.631-4.23-.631zm80.8 0c-2.24 0-3.95.281-3.85.631l1.56 5.07c.11.35 2.01.629 4.26.629h63c2.25 0 3.96-.279 3.82-.629l-1.93-5.07c-.13-.35-2.04-.631-4.28-.631zm80.8 0c-2.24 0-3.93.281-3.79.631l1.98 5.07c.14.35 2.06.629 4.32.629h63c2.25 0 3.93-.279 3.77-.629l-2.36-5.07c-.17-.35-2.1-.631-4.34-.631zm80.8 0c-2.24 0-3.9.281-3.74.631l2.42 5.07c.16.35 2.11.629 4.37.629h63c2.26 0 3.91-.279 3.72-.629l-2.79-5.07c-.19-.35-2.15-.631-4.39-.631zm80.8 0c-2.24 0-3.88.281-3.68.631l2.84 5.07c.2.35 2.17.629 4.42.629h63c2.25 0 3.89-.279 3.66-.629l-3.21-5.07c-.23-.35-2.21-.631-4.44-.631zm80.8 0c-2.23 0-3.85.281-3.63.631l3.27 5.07c.23.35 2.23.629 4.48.629h63c2.25 0 3.86-.279 3.61-.629l-3.65-5.07c-.25-.35-2.25-.631-4.49-.631zm-1308 7.93c-2.26 0-4.28.291-4.54.641l-8.4 11.7c-.261.36 1.37.65 3.66.65h43.3c2.29 0 4.32-.29 4.57-.65l7.78-11.7c.236-.35-1.39-.641-3.65-.641zm61.1 0c-2.26 0-4.26.291-4.49.641l-7.66 11.7c-.239.36 1.41.65 3.7.65h74.3c2.29 0 4.3-.29 4.51-.65l6.67-11.7c.2-.35-1.45-.641-3.71-.641zm91.6 0c-2.26 0-4.23.291-4.43.641l-6.55 11.7c-.2.36 1.47.65 3.76.65h74.3c2.28 0 4.26-.29 4.44-.65l5.56-11.7c.16-.35-1.52-.641-3.77-.641zm91.6 0c-2.26 0-4.21.291-4.37.641l-5.44 11.7c-.17.36 1.54.65 3.82.65h74.3c2.28 0 4.24-.29 4.38-.65l4.44-11.7c.14-.35-1.57-.641-3.83-.641zm91.6 0c-2.25 0-4.18.291-4.31.641l-4.32 11.7c-.14.36 1.6.65 3.88.65h74.3c2.29 0 4.21-.29 4.31-.65l3.34-11.7c.1-.35-1.63-.641-3.89-.641zm91.7 0c-2.26 0-4.15.291-4.25.641l-3.21 11.7c-.1.36 1.66.65 3.94.65h74.3c2.29 0 4.18-.29 4.25-.65l2.23-11.7c.06-.35-1.7-.641-3.95-.641zm91.6 0c-2.25 0-4.12.291-4.18.641l-2.1 11.7c-.07.36 1.72.65 4.01.65h74.3c2.29 0 4.16-.29 4.19-.65l1.11-11.7c.04-.35-1.75-.641-4.01-.641zm91.6 0c-2.26 0-4.1.291-4.13.641l-.99 11.7c-.03.36 1.79.65 4.08.65h74.3c2.29 0 4.13-.29 4.13-.65v-11.7c0-.35-1.82-.641-4.07-.641zm91.7 0c-2.26 0-4.07.291-4.07.641l.121 11.7c.01.36 1.85.65 4.14.65h74.3c2.29 0 4.1-.29 4.07-.65l-1.11-11.7c-.04-.35-1.88-.641-4.14-.641zm91.6 0c-2.25 0-4.04.291-4 .641l1.23 11.7c.04.36 1.91.65 4.2.65h74.3c2.29 0 4.08-.29 4.01-.65l-2.23-11.7c-.06-.35-1.93-.641-4.19-.641zm91.7 0c-2.26 0-4.02.291-3.95.641l2.35 11.7c.07.36 1.97.65 4.26.65h74.3c2.28 0 4.04-.29 3.94-.65l-3.34-11.7c-.1-.35-2-.641-4.26-.641zm91.6 0c-2.25 0-3.98.291-3.88.641l3.46 11.7c.11.36 2.03.65 4.32.65h74.3c2.28 0 4.01-.29 3.87-.65l-4.44-11.7c-.14-.35-2.06-.641-4.32-.641zm91.7 0c-2.26 0-3.96.291-3.82.641l4.57 11.7c.14.36 2.1.65 4.38.65h74.3c2.28 0 3.99-.29 3.81-.65l-5.56-11.7c-.16-.35-2.12-.641-4.37-.641zm91.7 0c-2.26 0-3.94.291-3.77.641l5.69 11.7c.17.36 2.16.65 4.44.65h136c2.29 0 3.94-.29 3.71-.65l-7.41-11.7c-.23-.35-2.22-.641-4.48-.641zm153 0c-2.26 0-3.89.291-3.66.641l7.53 11.7c.24.36 2.27.65 4.56.65h64c2.29 0 3.92-.29 3.66-.65l-8.4-11.7c-.26-.35-2.28-.641-4.54-.641zm-1324 14.6c-2.29 0-4.35.29-4.61.66l-8.66 12c-.269.38 1.38.68 3.71.68h85.9c2.32 0 4.38-.3 4.61-.68l7.51-12c.229-.37-1.43-.66-3.72-.66zm103 0c-2.29 0-4.32.29-4.54.66l-7.39 12c-.23.38 1.45.68 3.78.68h75.5c2.32 0 4.35-.3 4.55-.68l6.36-12c.2-.37-1.49-.66-3.78-.66zm93 0c-2.29 0-4.28.29-4.47.66l-6.24 12c-.2.38 1.52.68 3.84.68h75.4c2.32 0 4.32-.3 4.48-.68l5.22-12c.16-.37-1.55-.66-3.84-.66zm93 0c-2.29 0-4.26.29-4.41.66l-5.1 12c-.15.38 1.59.68 3.91.68h75.5c2.32 0 4.29-.3 4.42-.68l4.07-12c.13-.37-1.62-.66-3.91-.66zm93 0c-2.29 0-4.23.29-4.35.66l-3.95 12c-.12.38 1.65.68 3.97.68h75.4c2.32 0 4.27-.3 4.36-.68l2.93-12c.08-.37-1.69-.66-3.98-.66zm93 0c-2.29 0-4.2.29-4.29.66l-2.8 12c-.09.38 1.71.68 4.03.68h75.4c2.32 0 4.24-.3 4.29-.68l1.79-12c.05-.37-1.75-.66-4.04-.66zm93 0c-2.29 0-4.18.29-4.23.66l-1.65 12c-.06.38 1.77.68 4.09.68h75.4c2.33 0 4.21-.3 4.23-.68l.639-12c.02-.37-1.81-.66-4.1-.66zm93 0c-2.29 0-4.14.29-4.16.66l-.51 12c-.01.38 1.84.68 4.17.68h75.4c2.33 0 4.18-.3 4.17-.68l-.51-12c-.02-.37-1.87-.66-4.16-.66zm93 0c-2.29 0-4.12.29-4.1.66l.639 12c.02.38 1.9.68 4.23.68h75.4c2.32 0 4.15-.3 4.09-.68l-1.65-12c-.05-.37-1.94-.66-4.23-.66zm93 0c-2.29 0-4.09.29-4.04.66l1.79 12c.05.38 1.97.68 4.29.68h75.4c2.32 0 4.12-.3 4.03-.68l-2.8-12c-.09-.37-2-.66-4.29-.66zm93 0c-2.29 0-4.06.29-3.98.66l2.93 12c.09.38 2.04.68 4.36.68h75.4c2.32 0 4.09-.3 3.97-.68l-3.95-12c-.12-.37-2.06-.66-4.35-.66zm93 0c-2.29 0-4.04.29-3.91.66l4.07 12c.13.38 2.1.68 4.42.68h75.5c2.32 0 4.06-.3 3.91-.68l-5.1-12c-.15-.37-2.12-.66-4.41-.66zm93 0c-2.29 0-4 .29-3.84.66l5.22 12c.16.38 2.16.68 4.48.68h75.4c2.32 0 4.04-.3 3.84-.68l-6.24-12c-.19-.37-2.18-.66-4.47-.66zm93 0c-2.29 0-3.98.29-3.78.66l6.36 12c.2.38 2.23.68 4.55.68h96.4c2.32 0 4-.3 3.76-.68l-7.64-12c-.23-.37-2.26-.66-4.55-.66zm114 0c-2.3 0-3.95.29-3.71.66l7.76 12c.25.38 2.31.68 4.63.68h65c2.33 0 3.98-.3 3.71-.68l-8.66-12c-.26-.37-2.32-.66-4.61-.66zm-1344 15.1c-2.33 0-4.42.3-4.69.68l-8.93 12.4c-.278.38 1.4.699 3.76.699h119c2.36 0 4.44-.319 4.67-.699l7.36-12.4c.223-.38-1.47-.68-3.8-.68zm136 0c-2.33 0-4.37.3-4.59.68l-7.22 12.4c-.225.38 1.49.699 3.85.699h87.3c2.36 0 4.41-.319 4.6-.699l6.04-12.4c.18-.38-1.54-.68-3.87-.68zm105 0c-2.32 0-4.34.3-4.52.68l-5.91 12.4c-.18.38 1.57.699 3.93.699h76.6c2.36 0 4.38-.319 4.54-.699l4.85-12.4c.15-.38-1.6-.68-3.93-.68zm94.5 0c-2.33 0-4.32.3-4.46.68l-4.73 12.4c-.15.38 1.63.699 3.99.699h76.6c2.36 0 4.35-.319 4.47-.699l3.67-12.4c.11-.38-1.67-.68-3.99-.68zm94.5 0c-2.33 0-4.29.3-4.39.68l-3.55 12.4c-.11.38 1.7.699 4.06.699h76.6c2.36 0 4.32-.319 4.39-.699l2.5-12.4c.08-.38-1.74-.68-4.06-.68zm94.5 0c-2.32 0-4.25.3-4.33.68l-2.36 12.4c-.07.38 1.77.699 4.12.699h76.6c2.36 0 4.29-.319 4.33-.699l1.32-12.4c.04-.38-1.8-.68-4.13-.68zm94.5 0c-2.33 0-4.23.3-4.27.68l-1.18 12.4c-.04.38 1.83.699 4.19.699h76.6c2.36 0 4.26-.319 4.26-.699l.141-12.4c0-.38-1.87-.68-4.2-.68zm94.5 0c-2.33 0-4.2.3-4.2.68v12.4c0 .38 1.9.699 4.26.699h76.6c2.35 0 4.23-.319 4.19-.699l-1.05-12.4c-.03-.38-1.93-.68-4.25-.68zm94.5 0c-2.32 0-4.17.3-4.13.68l1.18 12.4c.04.38 1.96.699 4.32.699h76.6c2.36 0 4.2-.319 4.13-.699l-2.23-12.4c-.07-.38-1.99-.68-4.32-.68zm94.5 0c-2.32 0-4.14.3-4.06.68l2.36 12.4c.07.38 2.03.699 4.39.699h76.6c2.36 0 4.17-.319 4.06-.699l-3.41-12.4c-.1-.38-2.06-.68-4.39-.68zm94.5 0c-2.33 0-4.11.3-4.01.68l3.55 12.4c.11.38 2.1.699 4.46.699h76.6c2.35 0 4.14-.319 3.99-.699l-4.59-12.4c-.14-.38-2.13-.68-4.45-.68zm94.5 0c-2.33 0-4.08.3-3.94.68l4.73 12.4c.15.38 2.16.699 4.52.699h76.6c2.36 0 4.11-.319 3.93-.699l-5.78-12.4c-.17-.38-2.18-.68-4.51-.68zm94.5 0c-2.32 0-4.05.3-3.87.68l5.91 12.4c.18.38 2.23.699 4.59.699h151c2.36 0 4.06-.319 3.81-.699l-7.88-12.4c-.24-.38-2.3-.68-4.63-.68zm168 0c-2.33 0-4.01.3-3.76.68l8.01 12.4c.25.38 2.35.699 4.71.699h66c2.36 0 4.03-.319 3.76-.699l-8.93-12.4c-.28-.38-2.37-.68-4.69-.68zm-1365 15.5c-2.36 0-4.49.311-4.77.701l-9.21 12.8c-.288.4 1.41.721 3.81.721h164c2.4 0 4.5-.321 4.72-.721l7.05-12.8c.21-.39-1.52-.701-3.88-.701zm181 0c-2.36 0-4.43.311-4.64.701l-6.91 12.8c-.22.4 1.54.721 3.93.721h77.8c2.39 0 4.47-.321 4.65-.721l5.83-12.8c.18-.39-1.58-.701-3.95-.701zm96 0c-2.36 0-4.4.311-4.57.701l-5.69 12.8c-.18.4 1.6.721 4 .721h77.8c2.39 0 4.44-.321 4.58-.721l4.61-12.8c.14-.39-1.65-.701-4.01-.701zm96 0c-2.37 0-4.38.311-4.51.701l-4.47 12.8c-.14.4 1.67.721 4.07.721h77.9c2.39 0 4.41-.321 4.51-.721l3.39-12.8c.1-.39-1.72-.701-4.08-.701zm96 0c-2.36 0-4.34.311-4.44.701l-3.25 12.8c-.11.4 1.74.721 4.14.721h77.8c2.4 0 4.38-.321 4.45-.721l2.17-12.8c.06-.39-1.79-.701-4.15-.701zm95.9 0c-2.36 0-4.31.311-4.37.701l-2.04 12.8c-.06.4 1.82.721 4.21.721h77.8c2.4 0 4.35-.321 4.38-.721l.951-12.8c.03-.39-1.85-.701-4.21-.701zm96 0c-2.37 0-4.29.311-4.31.701l-.82 12.8c-.02.4 1.89.721 4.28.721h77.9c2.4 0 4.32-.321 4.31-.721l-.27-12.8c-.01-.39-1.92-.701-4.28-.701zm95.9 0c-2.36 0-4.26.311-4.24.701l.4 12.8c.02.4 1.95.721 4.35.721h77.8c2.39 0 4.28-.321 4.24-.721l-1.49-12.8c-.05-.39-1.99-.701-4.35-.701zm95.9 0c-2.36 0-4.22.311-4.17.701l1.62 12.8c.05.4 2.02.721 4.42.721h77.8c2.39 0 4.25-.321 4.17-.721l-2.71-12.8c-.08-.39-2.05-.701-4.42-.701zm96 0c-2.36 0-4.19.311-4.1.701l2.84 12.8c.09.4 2.09.721 4.49.721h77.8c2.4 0 4.23-.321 4.11-.721l-3.93-12.8c-.12-.39-2.12-.701-4.48-.701zm96 0c-2.36 0-4.17.311-4.04.701l4.06 12.8c.13.4 2.16.721 4.55.721h77.8c2.4 0 4.2-.321 4.04-.721l-5.15-12.8c-.16-.39-2.19-.701-4.55-.701zm96 0c-2.36 0-4.13.311-3.97.701l5.28 12.8c.17.4 2.23.721 4.62.721h218c2.39 0 4.12-.321 3.86-.721l-8.13-12.8c-.24-.39-2.35-.701-4.71-.701zm235 0c-2.36 0-4.06.311-3.81.701l8.27 12.8c.25.4 2.39.721 4.79.721h67c2.4 0 4.09-.321 3.81-.721l-9.22-12.8c-.28-.39-2.4-.701-4.77-.701zm-1387 16c-2.4 0-4.56.32-4.85.73l-9.51 13.2c-.296.42 1.43.75 3.86.75h79.1c2.43 0 4.61-.33 4.87-.75l8.39-13.2c.255-.41-1.47-.73-3.87-.73zm97.5 0c-2.4 0-4.53.32-4.79.73l-8.25 13.2c-.257.42 1.5.75 3.93.75h79.1c2.44 0 4.58-.33 4.8-.75l7.13-13.2c.22-.41-1.54-.73-3.94-.73zm97.5 0c-2.4 0-4.51.32-4.72.73l-6.99 13.2c-.22.42 1.56.75 4 .75h79.1c2.44 0 4.54-.33 4.73-.75l5.87-13.2c.18-.41-1.61-.73-4.01-.73zm97.5 0c-2.4 0-4.48.32-4.65.73l-5.74 13.2c-.17.42 1.64.75 4.08.75h79.1c2.43 0 4.51-.33 4.65-.75l4.62-13.2c.14-.41-1.68-.73-4.08-.73zm97.5 0c-2.4 0-4.45.32-4.58.73l-4.48 13.2c-.14.42 1.71.75 4.15.75h530c2.43 0 4.33-.33 4.26-.75l-2.38-13.2c-.07-.41-2.06-.73-4.46-.73zm542 0c-2.4 0-4.27.32-4.19.73l2.52 13.2c.07.42 2.1.75 4.53.75h79.1c2.43 0 4.3-.33 4.19-.75l-3.64-13.2c-.11-.41-2.13-.73-4.53-.73zm97.5 0c-2.4 0-4.24.32-4.12.73l3.77 13.2c.12.42 2.18.75 4.61.75h79.1c2.44 0 4.28-.33 4.12-.75l-4.89-13.2c-.15-.41-2.2-.73-4.6-.73zm97.5 0c-2.4 0-4.21.32-4.05.73l5.03 13.2c.16.42 2.25.75 4.68.75h79.1c2.44 0 4.24-.33 4.05-.75l-6.15-13.2c-.19-.41-2.27-.73-4.67-.73zm184 0c-2.4 0-4.15.32-3.92.73l2.75 4.91c.23.41 2.36.74 4.77.74h67.6c2.41 0 4.15-.33 3.89-.74l-3.12-4.91c-.26-.41-2.39-.73-4.8-.73zm-82.7 8.21c-2.42 0-4.21.33-4.02.74l2.38 4.99c.2.42 2.31.75 4.75.75h68.1c2.43 0 4.21-.33 3.98-.75l-2.75-4.99c-.22-.41-2.35-.74-4.77-.74zm87.3 0c-2.42 0-4.18.33-3.95.74l2.8 4.99c.23.42 2.38.75 4.81.75h68.1c2.43 0 4.18-.33 3.92-.75l-3.17-4.99c-.26-.41-2.42-.74-4.84-.74zm87.3 0c-2.42 0-4.16.33-3.9.74l3.23 4.99c.26.42 2.44.75 4.87.75h68.1c2.44 0 4.16-.33 3.86-.75l-3.6-4.99c-.29-.41-2.47-.74-4.89-.74zm-1043 15.9h745c2.46 0 4.55.342 4.71.762h-754c.16-.42 2.25-.762 4.71-.762z" fill="url(#c)" filter="url(#n)" opacity=".169" style="mix-blend-mode:soft-light;paint-order:stroke fill markers"/><path d="M1993 1132c-1.25 3.89-17.6 6.8-40.4 6.8H47.6c-22.8 0-39.2-2.91-40.4-6.8-1.48 4.38 15.7 7.8 40.4 7.8h1905c24.7 0 41.9-3.42 40.4-7.8z" fill="url(#o)" opacity=".3" style="paint-order:stroke fill markers"/><path d="M842 1136c-20 0-30 3-30 3h375s-10-3-30-3z" fill="#fff" opacity=".082"/><path d="M842 1137c-20 0-30 3-30 3s5 10 20 10h335c15 0 20-10 20-10s-10-3-30-3z" fill="url(#p)"/><g transform="translate(7.5 -20)"><circle cx="992" cy="42.5" r="12.5" fill="#131313" style="paint-order:stroke fill markers"/><circle cx="992" cy="42.5" r="9.5" fill="#011323" style="paint-order:stroke fill markers"/><circle cx="992" cy="42.5" r="6.5" fill="#010a12" style="paint-order:stroke fill markers"/><path d="M1000 42.5c0 4.14-15 4.14-15 0s3.36-7.5 7.5-7.5 7.5 3.36 7.5 7.5z" fill="#01335c" opacity=".384" style="paint-order:stroke fill markers"/></g><circle cx="1028" cy="22.5" r="2.5" fill="#01335c" opacity=".384" style="paint-order:stroke fill markers"/><path d="M200-960c-22.2 0-42.5 2.76-45.5 6.21l-147 165c-4.26 4.79 13.5 8.68 39.9 8.68h1905c26.4 0 44.2-3.89 39.9-8.68l-147-165c-3.07-3.45-23.4-6.21-45.5-6.21zm1508 10.1 60.9 82.2c1.91 2.58-1513 4.67-1513 4.67-15.3 0-26-2.09-24.1-4.67l60.9-82.2c1.62-2.18 1413-2.18 1415 0zM628-857.4h745c2.46 0 4.55.342 4.71.762h-754c.16-.42 2.25-.762 4.71-.762z" fill="url(#q)" opacity=".18" style="mix-blend-mode:soft-light;fill:url(#q);fill-opacity:1;paint-order:stroke fill markers"/></svg>